<svg xmlns="http://www.w3.org/2000/svg" width="916" height="680" fill="none">
  <g clip-path="url(#a)">
    <path fill="#F5F5F5" d="M458 680c196.176 0 355.207-9.249 355.207-20.658 0-11.41-159.031-20.659-355.207-20.659-196.175 0-355.206 9.249-355.206 20.659C102.794 670.751 261.825 680 458 680Z"/>
    <path fill="#407BFF" d="M251.533 515.115a6.472 6.472 0 0 1 2.36-4.184 6.519 6.519 0 0 1 4.602-1.419c15.682-.237 30.356 10.804 43.968 22.648 3.023 2.609 6.302 5.31 9.691 2.573a6.805 6.805 0 0 0 2.199-3.322c.586-2.126.586-4.37 0-6.496a14.171 14.171 0 0 0-2.474-4.837c-5.917-7.756-13.117-11.479-18.961-19.49a70.79 70.79 0 0 1-8.079-14.782c-1.832-4.599-5.496-12.027-4.03-18.25 1.63-7.446 7.218-6.807 10.607-5.785 10.717 3.193 20.72 10.804 29.807 20.275 9.691 10.074 18.466 22.21 27.205 34.273 3.297 4.581 6.778 9.289 10.992 10.95 4.213 1.661 9.544-1.022 11.322-7.629 1.777-6.606-.312-14.198-.752-20.768a95.603 95.603 0 0 1 1.136-23.469 31.927 31.927 0 0 1 4.086-11.607c4.726-6.898 11.724-4.471 16.304.749a47.9 47.9 0 0 1 7.988 14.599 167.341 167.341 0 0 1 9.16 45.351c.696 9.581 2.162 19.563 6.119 26.991 6.393 12.008 18.32 11.059 27.571 4.763 16.104-10.95 28.525-35.696 31.841-63.363 1.08-9.015 1.355-18.76 4.653-26.316 2.876-6.533 10.259-10.949 13.868-3.905a19.805 19.805 0 0 1 1.173 11.132 78.732 78.732 0 0 1-2.73 10.95c-1.832 6.205-3.664 17.83 1.282 21.462a5.947 5.947 0 0 0 4.965.547c16.195-3.358 31.254-18.541 41.147-39.729a125.15 125.15 0 0 0 8.17-24.838c1.191-5.219 1.686-10.822 3.005-16.005a29.142 29.142 0 0 1 5.02-11.297c6.302-7.518 20.848-3.978 21.672 12.136.495 9.326-1.997 18.451-2.913 27.576-.568 5.694 2.968 5.657 5.606 5.475 12.641-1.278 23.816-13.98 33.727-27.192 11.78-15.713 24.824-36.116 40.909-36.719 3.664-.127 9.764.347 11.963 5.986a18.708 18.708 0 0 1 0 10.585c-3.261 13.468-12.824 20.421-20.152 27.082a340.898 340.898 0 0 0-54.099 64.86c-2.327 3.65-4.727 9.672-2.51 13.249a4.001 4.001 0 0 0 1.779 1.544 4.027 4.027 0 0 0 2.343.281c7.566-.584 14.656-6.57 21.563-11.534 6.906-4.964 14.747-9.307 21.984-5.566a19.672 19.672 0 0 1 5.718 5.18 19.594 19.594 0 0 1 3.277 6.974 28.513 28.513 0 0 1 .604 13.578c-2.656 12.391-14.143 17.958-20.463 24.071a211.164 211.164 0 0 0-23.816 27.174c-6.595 8.997-12.824 18.852-19.419 27.685-23.816 31.626-56.792 36.316-86.104 39.985-31.895 3.978-63.864 1.825-95.576-2.355-23.065-3.065-45.8-9.599-68.315-17.355-7.731-2.792-15.407-5.84-22.992-9.453-8.152-3.869-20.152-6.26-23.284-21.498-.66-3.285.11-5.95 2.29-7.172 6.76-3.833 16.396 1.295 22.753 4.671 8.775 4.672 17.093 11.333 26.106 14.929a11.992 11.992 0 0 0 9.38.492 6.948 6.948 0 0 0 3.462-3.157 8.379 8.379 0 0 0 .66-6.004 7.177 7.177 0 0 0-1.832-2.865 174.37 174.37 0 0 0-57.012-38.726c-6.87-2.938-13.886-5.347-20.5-9.508A46.038 46.038 0 0 1 258 536.521c-3.078-4.909-8.024-13.577-6.467-21.406ZM601.94 380.961a8.138 8.138 0 0 1-9.65 1.523 8.098 8.098 0 0 1-3.545-3.724 8.047 8.047 0 0 1-.581-5.099c6.32-30.568 20.06-52.796 36.401-41.262 12.202 8.595-6.925 32.302-22.625 48.562Z" opacity=".1"/>
    <path fill="#407BFF" d="M557.605 395.233a34.527 34.527 0 0 0 12.333-11.463 34.337 34.337 0 0 0 5.419-15.912l12.385-150.286a55.387 55.387 0 0 0-2.897-22.822 55.536 55.536 0 0 0-11.924-19.699l-38.161-40.715a22.183 22.183 0 0 1-4.719-7.816 22.09 22.09 0 0 1-1.161-9.047l1.832-22.009-98.763-8.085-1.832 22.009a22.029 22.029 0 0 1-2.618 8.738 22.095 22.095 0 0 1-5.938 6.939l-44.334 33.999a55.722 55.722 0 0 0-14.983 17.503 55.5 55.5 0 0 0-6.598 22.044l-12.403 150.286a34.314 34.314 0 0 0 2.748 16.558 34.44 34.44 0 0 0 10.278 13.298 34.47 34.47 0 0 0-12.329 11.462 34.293 34.293 0 0 0-5.405 15.913l-15.81 191.621a34.405 34.405 0 0 0 8.106 25.113 34.674 34.674 0 0 0 23.551 12.062l163.048 13.34a34.71 34.71 0 0 0 13.411-1.53 34.628 34.628 0 0 0 11.802-6.527 34.482 34.482 0 0 0 8.395-10.531 34.347 34.347 0 0 0 3.709-12.929l15.811-191.621a34.326 34.326 0 0 0-2.706-16.568 34.448 34.448 0 0 0-10.247-13.325Z" opacity=".3"/>
    <path fill="#407BFF" d="m431.977 87.413-1.401 16.97 98.742 8.086 1.4-16.97-98.741-8.086Z" opacity=".3"/>
    <path fill="#fff" d="m572.005 178.974-38.161-40.751s-24.603 1.058-5.496 31.116c16.287 25.421 44.665 21.461 43.657 9.635Z" opacity=".3"/>
    <path fill="#407BFF" d="M322.743 597.676a34.405 34.405 0 0 0 8.107 25.113 34.666 34.666 0 0 0 23.55 12.061l163.048 13.341a34.729 34.729 0 0 0 13.411-1.53 34.649 34.649 0 0 0 11.803-6.527 34.482 34.482 0 0 0 8.395-10.531 34.352 34.352 0 0 0 3.709-12.929l-232.023-18.998Z" opacity=".2"/>
    <path fill="#407BFF" d="M564.879 182.497a44.67 44.67 0 0 1 9.572 15.82 44.55 44.55 0 0 1 2.336 18.325l-12.384 150.304a23.464 23.464 0 0 1-3.714 10.842 23.582 23.582 0 0 1-8.414 7.809l-14.418 7.957 12.916 10.201a23.495 23.495 0 0 1 7.021 9.069 23.401 23.401 0 0 1 1.882 11.298l-15.81 191.621a23.495 23.495 0 0 1-8.234 16.002 23.678 23.678 0 0 1-17.176 5.533l-163.048-13.341a23.721 23.721 0 0 1-8.881-2.5 23.64 23.64 0 0 1-7.244-5.695 23.485 23.485 0 0 1-5.584-17.154l15.81-191.621a23.454 23.454 0 0 1 3.7-10.851 23.56 23.56 0 0 1 8.41-7.818l14.418-7.957-12.824-10.202a23.487 23.487 0 0 1-7.022-9.068 23.403 23.403 0 0 1-1.882-11.298l12.403-150.286a44.605 44.605 0 0 1 5.31-17.701 44.771 44.771 0 0 1 12.039-14.053c14.656-9.436 53.128 14.052 98.177 17.738 45.048 3.687 73.225-7.701 82.641-2.974Z" opacity=".3"/>
    <path fill="#407BFF" d="M482.145 185.489c-45.03-3.65-83.539-27.192-98.195-17.756 25.648 14.052 54.96 22.757 97.481 26.243 42.521 3.485 83.447-11.48 83.447-11.48-9.416-4.726-37.702 6.698-82.733 2.993ZM343.262 348.897a34.326 34.326 0 0 0 2.747 16.558 34.459 34.459 0 0 0 10.278 13.298l201.319 16.425a34.515 34.515 0 0 0 12.332-11.463 34.346 34.346 0 0 0 5.42-15.912l-232.096-18.906Z" opacity=".2"/>
    <path fill="#407BFF" d="m532.783 68.585-98.466-8.09c-4.124-.338-7.741 2.718-8.079 6.826l-1.964 23.864c-.338 4.108 2.731 7.713 6.856 8.052l98.465 8.089c4.124.339 7.742-2.717 8.08-6.825l1.963-23.864c.338-4.108-2.731-7.713-6.855-8.052Z"/>
    <path fill="#fff" d="M436.126 95.555a.915.915 0 0 1-.843-.985l2.309-28.871a.92.92 0 0 1 1.832.146l-2.382 28.852a.912.912 0 0 1-.916.858ZM453.987 97.015a.922.922 0 0 1-.627-.318.916.916 0 0 1-.215-.667l2.381-28.853a.935.935 0 0 1 .99-.84.907.907 0 0 1 .621.32.892.892 0 0 1 .203.666l-2.437 28.853a.936.936 0 0 1-.916.84ZM471.831 98.548a.915.915 0 0 1-.842-.985l2.381-28.853a.948.948 0 0 1 .989-.84.92.92 0 0 1 .802.63.91.91 0 0 1 .041.356l-2.381 28.853a.917.917 0 0 1-.99.84ZM489.694 99.935a.92.92 0 0 1-.802-.63.91.91 0 0 1-.041-.355l2.381-28.853a.932.932 0 0 1 .99-.84.903.903 0 0 1 .621.32.892.892 0 0 1 .203.666l-2.382 28.853a.905.905 0 0 1-.617.798.9.9 0 0 1-.353.041ZM507.464 101.395a.905.905 0 0 1-.345-.097.926.926 0 0 1-.457-.533.912.912 0 0 1-.041-.355l2.382-28.853a.967.967 0 0 1 .989-.84.92.92 0 0 1 .802.63.91.91 0 0 1 .041.356l-2.382 28.853a.878.878 0 0 1-.314.63.89.89 0 0 1-.675.209ZM525.4 102.855a.91.91 0 0 1-.628-.318.923.923 0 0 1-.215-.667l2.308-28.871a.931.931 0 0 1 .989-.84.913.913 0 0 1 .825.986l-2.363 28.871a.932.932 0 0 1-.916.839Z" opacity=".2"/>
    <path fill="#407BFF" d="M373.728 298.692c-2.785-15.348-25.227-14.253-26.509 1.277l-4.031 48.928a34.314 34.314 0 0 0 2.748 16.558 34.45 34.45 0 0 0 10.278 13.298 34.459 34.459 0 0 0-12.328 11.462 34.29 34.29 0 0 0-5.406 15.913l-15.81 191.621a34.409 34.409 0 0 0 8.106 25.113 34.67 34.67 0 0 0 23.551 12.061l42.136 3.45c4.642.378 9.31-.311 13.642-2.015a30.39 30.39 0 0 0 11.343-7.813 30.239 30.239 0 0 0 6.71-12.002 30.163 30.163 0 0 0 .695-13.721l-55.125-304.13Z" opacity=".2"/>
    <path fill="#407BFF" d="M535.859 549.606a17.806 17.806 0 0 1-3.825 9.635 17.915 17.915 0 0 1-8.554 5.894 17.979 17.979 0 0 1-10.399.168 17.922 17.922 0 0 1-8.741-5.615 17.787 17.787 0 0 1-2.275-19.7 17.872 17.872 0 0 1 7.232-7.446 17.958 17.958 0 0 1 22.363 4.058 17.819 17.819 0 0 1 4.199 13.006ZM478.903 480.495a12.595 12.595 0 0 1-2.704 6.82 12.68 12.68 0 0 1-6.051 4.175 12.735 12.735 0 0 1-7.36.121 12.679 12.679 0 0 1-6.187-3.973 12.597 12.597 0 0 1-1.61-13.942 12.658 12.658 0 0 1 5.12-5.269 12.715 12.715 0 0 1 7.195-1.546 12.711 12.711 0 0 1 8.622 4.42 12.617 12.617 0 0 1 2.975 9.194ZM425.904 326.669a12.717 12.717 0 0 1-7.132-1.798 12.649 12.649 0 0 1-4.929-5.441 12.585 12.585 0 0 1 2.09-13.871 12.69 12.69 0 0 1 6.315-3.759 12.721 12.721 0 0 1 7.347.367 12.676 12.676 0 0 1 5.906 4.37 12.586 12.586 0 0 1-.806 16.011 12.665 12.665 0 0 1-3.984 2.933 12.728 12.728 0 0 1-4.807 1.188ZM460.473 251.17a9.008 9.008 0 0 1-5.06-1.259 8.96 8.96 0 0 1-3.504-3.849 8.915 8.915 0 0 1 1.47-9.835 8.985 8.985 0 0 1 4.477-2.666 9.014 9.014 0 0 1 5.21.264 8.981 8.981 0 0 1 4.182 3.104 8.924 8.924 0 0 1 1.744 4.897 8.925 8.925 0 0 1-2.322 6.425 8.992 8.992 0 0 1-6.197 2.919ZM516.092 425.91a5.202 5.202 0 0 1-1.122 2.814 5.243 5.243 0 0 1-5.541 1.766 5.24 5.24 0 0 1-2.554-1.642 5.207 5.207 0 0 1 1.447-7.934 5.256 5.256 0 0 1 2.971-.643 5.264 5.264 0 0 1 3.569 1.832 5.22 5.22 0 0 1 1.23 3.807Z" opacity=".3"/>
    <path fill="#fff" d="M421.195 568.695h-.88a10.658 10.658 0 0 1-7.328-3.649 10.46 10.46 0 0 1-2.473-7.702 10.54 10.54 0 0 1 2.201-5.614 10.595 10.595 0 0 1 4.924-3.503 10.64 10.64 0 0 1 11.245 2.831 10.53 10.53 0 0 1 1.92 11.395 10.578 10.578 0 0 1-3.905 4.605 10.643 10.643 0 0 1-5.796 1.729l.092-.092Zm0-19.782a9.183 9.183 0 0 0-5.721 2.034 9.124 9.124 0 0 0-3.185 5.152 9.096 9.096 0 0 0 .751 6.005 9.142 9.142 0 0 0 4.356 4.216 9.194 9.194 0 0 0 6.047.575 9.165 9.165 0 0 0 5.078-3.32 9.103 9.103 0 0 0-3.092-13.647 9.18 9.18 0 0 0-3.465-.979l-.769-.036ZM534.504 355.138h-.641a7.722 7.722 0 0 1-5.242-2.681 7.662 7.662 0 0 1-1.811-5.586 7.67 7.67 0 0 1 2.698-5.228 7.73 7.73 0 0 1 10.861.883 7.666 7.666 0 0 1 1.811 5.586 7.765 7.765 0 0 1-2.693 5.238 7.693 7.693 0 0 1-4.983 1.788Zm-6.32-8.194a6.281 6.281 0 0 0 .802 3.565 6.324 6.324 0 0 0 2.649 2.525 6.358 6.358 0 0 0 6.973-.816 6.32 6.32 0 0 0 2.219-4.301 6.295 6.295 0 0 0-1.487-4.605 6.265 6.265 0 0 0-4.396-2.044 6.33 6.33 0 0 0-4.619 1.47 6.298 6.298 0 0 0-2.215 4.297l.074-.091ZM416.139 193.336h-.275a3.668 3.668 0 0 1-2.434-1.27 3.64 3.64 0 0 1 1.555-5.796 3.668 3.668 0 0 1 3.909.937 3.639 3.639 0 0 1-.655 5.545 3.675 3.675 0 0 1-2.009.602l-.091-.018Zm-2.217-3.759a2.202 2.202 0 0 0 1.199 2.14 2.223 2.223 0 0 0 2.444-.281 2.201 2.201 0 0 0-.05-3.41 2.218 2.218 0 0 0-1.193-.474 2.207 2.207 0 0 0-1.628.509 2.2 2.2 0 0 0-.54.68 2.204 2.204 0 0 0-.232.836ZM497.15 287.852h-.77a9.162 9.162 0 0 1-6.274-3.2 9.128 9.128 0 0 1-1.739-3.133 9.09 9.09 0 0 1-.396-3.559 9.115 9.115 0 0 1 1.92-4.832 9.16 9.16 0 0 1 4.258-3.004 9.2 9.2 0 0 1 5.213-.202 9.17 9.17 0 0 1 4.478 2.667 9.104 9.104 0 0 1 1.65 9.827 9.137 9.137 0 0 1-3.363 3.973 9.193 9.193 0 0 1-4.996 1.499l.019-.036Zm0-16.972a7.761 7.761 0 0 0-5.038 1.824 7.803 7.803 0 0 0-2.748 5.293 7.76 7.76 0 0 0 .622 3.732 7.8 7.8 0 0 0 2.314 3 7.85 7.85 0 0 0 7.248 1.315 7.837 7.837 0 0 0 3.227-1.994 7.784 7.784 0 0 0 2.036-7.054 7.769 7.769 0 0 0-4.062-5.291 7.764 7.764 0 0 0-2.94-.825h-.659Z" opacity=".7"/>
    <path fill="#fff" d="m572.298 367.639 11.835-143.314a6.981 6.981 0 0 0-3.795-6.791 7.014 7.014 0 0 0-2.635-.746 7.005 7.005 0 0 0-6.817 3.764 6.923 6.923 0 0 0-.749 2.623l-11.835 143.314a28.814 28.814 0 0 1-4.557 13.372 28.947 28.947 0 0 1-10.374 9.623l-7.2 3.997 6.467 5.091a28.993 28.993 0 0 1 8.663 11.181 28.874 28.874 0 0 1 2.329 13.931l-15.81 191.621c-.953 11.497-8.207 17.1-18.412 21.571a3.19 3.19 0 0 0 1.026 6.096 29.189 29.189 0 0 0 21.201-6.788 28.963 28.963 0 0 0 10.182-19.729l15.81-191.622a28.846 28.846 0 0 0-2.325-13.933 28.96 28.96 0 0 0-8.667-11.178l-6.467-5.11 7.199-3.978a29.029 29.029 0 0 0 10.369-9.627 28.877 28.877 0 0 0 4.562-13.368Z" opacity=".3"/>
    <path fill="#407BFF" d="M762.46 590.358c-1.979-8.943-26.674-3.65-31.786-2.829a149.661 149.661 0 0 0-29.018 8.34c-10.315 4.033-22.296 9.964-32.976 3.833-6.174-3.541 15.26-10.53 17.202-11.242a157.021 157.021 0 0 0 26.271-12.008c3.389-2.008 9.948-6.808 7.126-11.68-2.345-4.033-10.753-3.65-15.865-3.03a189.441 189.441 0 0 0-45.232 11.297 448.057 448.057 0 0 0-41.513 18.925 53.66 53.66 0 0 1-16.836 6.04c-6.449.913-14.345-.456-16.891-4.015-2.547-3.558.733-7.719 1.484-11.296a19.137 19.137 0 0 0-1.264-12.775 13.51 13.51 0 0 0-5.954-6.241c-6.98-3.65-17.532-2.3-24.549.584a40.312 40.312 0 0 0-12.256 8.066 49.228 49.228 0 0 0-14.436 24.728 22.94 22.94 0 0 1-3.383 8.327 23.045 23.045 0 0 1-6.327 6.401c-9.819 6.588-27.81 6.205-41.568 2.902-24.017-5.676-42.337-18.944-46.753-33.927-2.143-7.135-3.187-14.599-12.824-17.391-6.228-1.825-19.272-.548-16.488 7.299a24.368 24.368 0 0 0 3.921 5.913c2.546 3.34 5.258 9.636-2.308 11.662-2.45.518-4.968.641-7.457.365-24.329-1.624-46.716-9.709-61.225-21.097a49.18 49.18 0 0 1-11.835-13.377c-1.722-2.828-2.345-5.876-4.232-8.668a16.8 16.8 0 0 0-7.328-6.077c-9.343-3.997-31.29-1.917-32.829 6.843-.825 4.745 2.143 9.891 3.664 14.399.273.569.338 1.214.183 1.825-.44 1.15-2.18 1.478-3.664 1.57-19.621 1.295-38.655-6.297-55.125-14.217-17.44-8.395-36.64-19.326-60.877-19.454a47.17 47.17 0 0 0-14.858 1.697 8.769 8.769 0 0 0-3.334 1.716 4.24 4.24 0 0 0-.806 4.708 10.972 10.972 0 0 0 3.407 4.051c7.328 5.95 17.588 8.359 26.949 11.425a461.35 461.35 0 0 1 80.205 34.583c2.583 1.442 7.163 4.781 3.536 7.3-3.627 2.518-10.992.894-15.334.182-7.878-1.277-15.444-3.321-23.12-5.237-10.149-2.555-21.984-4.873-32.976-2.756-5.807 1.113-10.992 3.486-13.721 6.697a6.303 6.303 0 0 0-1.173 7.3c3.774 6.698 20.976 9.581 30.375 12.775a307.105 307.105 0 0 1 35.229 14.472c9.765 4.818 18.833 10.092 28.726 14.819 35.339 16.881 84.693 19.052 128.826 20.695 47.907 1.825 96.033.274 143.812-2.373 34.808-1.934 68.975-5.748 103.087-10.238 9.801-1.277 19.547-2.847 29.312-4.179a184.321 184.321 0 0 0 29.312-5.785 24.805 24.805 0 0 0 9.434-4.708c2.62-2.428 3.445-5.603-1.245-6.516-9.82-1.952-19.933.274-29.532 2.008a573.138 573.138 0 0 0-32.024 6.807 125.772 125.772 0 0 1-14.656 2.975 36.967 36.967 0 0 1-14.857-.949c-1.576-.493-3.298-1.369-3.389-2.756-.092-1.387 1.227-2.263 2.583-2.792 19.767-7.811 40.762-12.775 61.903-17.337 14.345-3.103 28.946-5.001 43.4-7.428 13.172-2.208 27.059-2.719 38.472-11.041a13.135 13.135 0 0 0 5.057-6.077 7.276 7.276 0 0 0 .348-4.033ZM195.566 516.465c-5.368-15.202-24.494-42.12-28.524-26.225-2.162 8.924 28.524 26.225 28.524 26.225ZM675.879 546.393c10.222-9.288 22.973-14.817 24.622-6.642 1.539 7.737-24.622 6.642-24.622 6.642ZM256.48 472.519c-6.998-3.65-12.458-9.507-8.354-11.953 4.104-2.445 8.354 11.953 8.354 11.953Z" opacity=".3"/>
  </g>
  <defs>
    <clipPath id="a">
      <path fill="#fff" d="M0 0h916v680H0z"/>
    </clipPath>
  </defs>
</svg>
