<svg xmlns="http://www.w3.org/2000/svg" width="1440" height="432" fill="none">
  <g clip-path="url(#a)">
    <path fill="#9EBBFF" fill-rule="evenodd" d="m0 144 50 6c50 6 150 18 250 60s200 114 300 150 200 36 300 42 200 18 250 24l50 6H0V144Z" clip-rule="evenodd"/>
    <path fill="#ECF2FF" fill-rule="evenodd" d="M1440 0h-40c-40 0-120 0-200 22-80 21-160 64-240 64s-160-43-240-7-160 151-240 209-160 58-240 43c-80-14-160-43-200-57L0 259v173h1440V0Z" clip-rule="evenodd" opacity=".8"/>
    <g clip-path="url(#b)">
      <path fill="#F5F5F5" d="M1203 402c80.1 0 145.03-3.781 145.03-8.446 0-4.664-64.93-8.445-145.03-8.445s-145.03 3.781-145.03 8.445c0 4.665 64.93 8.446 145.03 8.446Z"/>
      <path fill="#407BFF" d="M1118.7 334.591c.09-.672.43-1.284.96-1.71.53-.427 1.2-.634 1.88-.58 6.41-.097 12.4 4.416 17.95 9.258 1.24 1.067 2.58 2.172 3.96 1.052.43-.353.74-.826.9-1.357.24-.87.24-1.787 0-2.657a5.893 5.893 0 0 0-1.01-1.977c-2.42-3.171-5.36-4.693-7.74-7.968a28.545 28.545 0 0 1-3.3-6.043c-.75-1.88-2.25-4.917-1.65-7.461.67-3.044 2.95-2.783 4.33-2.365 4.38 1.305 8.46 4.417 12.17 8.289 3.96 4.118 7.54 9.08 11.11 14.011 1.35 1.873 2.77 3.798 4.49 4.477 1.72.679 3.9-.418 4.62-3.119.73-2.701-.12-5.804-.3-8.49-.24-3.205-.09-6.428.46-9.595.24-1.674.81-3.286 1.67-4.745 1.93-2.82 4.78-1.828 6.65.306a19.547 19.547 0 0 1 3.27 5.969 69.065 69.065 0 0 1 3.74 18.54c.28 3.917.88 7.998 2.49 11.035 2.61 4.909 7.48 4.521 11.26 1.947 6.58-4.477 11.65-14.594 13-25.904.44-3.686.56-7.67 1.9-10.759 1.18-2.671 4.19-4.476 5.66-1.597.6 1.44.76 3.02.48 4.552a31.402 31.402 0 0 1-1.11 4.476c-.75 2.537-1.5 7.289.52 8.774a2.419 2.419 0 0 0 2.03.224c6.61-1.373 12.76-7.58 16.8-16.242a51.794 51.794 0 0 0 3.34-10.155c.48-2.134.68-4.424 1.22-6.543a12.076 12.076 0 0 1 2.05-4.618c2.57-3.074 8.51-1.627 8.85 4.961.2 3.813-.82 7.543-1.19 11.274-.23 2.328 1.21 2.313 2.29 2.238 5.16-.522 9.72-5.715 13.77-11.117 4.81-6.424 10.14-14.765 16.7-15.011 1.5-.052 3.99.142 4.89 2.447a7.765 7.765 0 0 1 0 4.327c-1.33 5.507-5.24 8.349-8.23 11.072a139.06 139.06 0 0 0-22.09 26.516c-.95 1.493-1.93 3.955-1.02 5.417.17.278.42.498.72.631s.64.173.96.115c3.09-.239 5.98-2.686 8.8-4.715 2.82-2.03 6.02-3.805 8.98-2.276.91.545 1.7 1.265 2.33 2.118a7.978 7.978 0 0 1 1.34 2.851c.53 1.804.61 3.708.25 5.551-1.09 5.066-5.78 7.342-8.36 9.841a86.73 86.73 0 0 0-9.72 11.109c-2.69 3.678-5.24 7.707-7.93 11.318-9.72 12.93-23.19 14.848-35.15 16.347-13.03 1.627-26.08.746-39.03-.962-9.42-1.254-18.7-3.925-27.89-7.096-3.16-1.141-6.29-2.387-9.39-3.864-3.33-1.582-8.23-2.559-9.51-8.789-.26-1.343.05-2.432.94-2.932 2.76-1.567 6.69.529 9.29 1.91 3.58 1.91 6.98 4.633 10.66 6.103.59.29 1.23.457 1.89.492.66.034 1.32-.065 1.94-.291.61-.254 1.1-.71 1.41-1.291.39-.756.49-1.631.27-2.454a2.914 2.914 0 0 0-.75-1.172 71.12 71.12 0 0 0-23.27-15.832c-2.81-1.201-5.67-2.186-8.37-3.887a18.74 18.74 0 0 1-5.54-5.222c-1.26-2.007-3.28-5.551-2.64-8.752ZM1261.77 279.746c-.5.516-1.15.857-1.87.969a3.32 3.32 0 0 1-3.52-1.869 3.32 3.32 0 0 1-.23-2.084c2.58-12.497 8.19-21.585 14.86-16.869 4.98 3.514-2.83 13.205-9.24 19.853Z" opacity=".1"/>
      <path fill="#407BFF" d="M1243.67 285.58a14.044 14.044 0 0 0 5.03-4.686 14.031 14.031 0 0 0 2.22-6.505l5.05-61.44a22.58 22.58 0 0 0-1.18-9.331 22.659 22.659 0 0 0-4.87-8.053l-15.58-16.645a9.133 9.133 0 0 1-1.93-3.196 9.106 9.106 0 0 1-.47-3.698l.75-8.998-40.33-3.305-.74 8.997a9.155 9.155 0 0 1-1.07 3.573 9.128 9.128 0 0 1-2.43 2.836l-18.1 13.9a22.765 22.765 0 0 0-6.12 7.156 22.837 22.837 0 0 0-2.69 9.012l-5.07 61.44c-.19 2.314.2 4.64 1.13 6.77a14.059 14.059 0 0 0 4.19 5.436 14.044 14.044 0 0 0-5.03 4.686 14.132 14.132 0 0 0-2.21 6.505l-6.45 78.34c-.31 3.724.88 7.417 3.31 10.266a14.136 14.136 0 0 0 9.61 4.932l66.57 5.453a14.142 14.142 0 0 0 13.73-7.599 13.974 13.974 0 0 0 1.51-5.285l6.46-78.34a14.087 14.087 0 0 0-5.29-12.221Z" opacity=".3"/>
      <path fill="#407BFF" d="m1192.37 159.736-.57 6.938 40.32 3.306.57-6.938-40.32-3.306Z" opacity=".3"/>
      <path fill="#fff" d="m1249.55 197.169-15.58-16.66s-10.05.432-2.25 12.72c6.65 10.393 18.24 8.774 17.83 3.94Z" opacity=".3"/>
      <path fill="#407BFF" d="M1147.78 368.344c-.31 3.724.88 7.417 3.31 10.267a14.14 14.14 0 0 0 9.61 4.931l66.57 5.454c1.85.152 3.71-.061 5.48-.626a14.25 14.25 0 0 0 4.82-2.668 14.035 14.035 0 0 0 3.42-4.305 13.998 13.998 0 0 0 1.52-5.286l-94.73-7.767Z" opacity=".2"/>
      <path fill="#407BFF" d="M1246.64 198.609a18.317 18.317 0 0 1 3.91 6.467 18.33 18.33 0 0 1 .95 7.492l-5.06 61.448a9.619 9.619 0 0 1-1.51 4.432 9.707 9.707 0 0 1-3.44 3.193l-5.88 3.253 5.27 4.17a9.647 9.647 0 0 1 2.87 3.708c.63 1.453.89 3.04.76 4.619l-6.45 78.339a9.634 9.634 0 0 1-3.36 6.542 9.675 9.675 0 0 1-7.02 2.262l-66.57-5.454a9.67 9.67 0 0 1-6.58-3.35 9.497 9.497 0 0 1-1.84-3.281 9.632 9.632 0 0 1-.44-3.732l6.45-78.339a9.63 9.63 0 0 1 1.51-4.436 9.718 9.718 0 0 1 3.44-3.197l5.88-3.253-5.23-4.17a9.647 9.647 0 0 1-2.87-3.708 9.63 9.63 0 0 1-.77-4.619l5.07-61.44c.21-2.537.95-5.001 2.17-7.237a18.178 18.178 0 0 1 4.91-5.745c5.98-3.857 21.69 5.745 40.09 7.252 18.39 1.507 29.89-3.149 33.74-1.216Z" opacity=".3"/>
      <path fill="#407BFF" d="M1212.86 199.832c-18.39-1.492-34.11-11.116-40.09-7.259 10.47 5.745 22.44 9.304 39.8 10.729 17.36 1.425 34.07-4.693 34.07-4.693-3.85-1.933-15.4 2.738-33.78 1.223ZM1156.15 266.637c-.19 2.314.2 4.64 1.12 6.769a14.08 14.08 0 0 0 4.2 5.437l82.2 6.715a14.062 14.062 0 0 0 5.03-4.686 14.031 14.031 0 0 0 2.22-6.505l-94.77-7.73Z" opacity=".2"/>
      <path fill="#407BFF" d="m1233.53 152.039-40.2-3.307a3.06 3.06 0 0 0-3.3 2.79l-.8 9.756a3.05 3.05 0 0 0 2.8 3.292l40.2 3.308a3.054 3.054 0 0 0 3.3-2.791l.8-9.756a3.05 3.05 0 0 0-2.8-3.292Z"/>
      <path fill="#fff" d="M1194.07 163.065a.355.355 0 0 1-.14-.039.319.319 0 0 1-.12-.091.525.525 0 0 1-.07-.128.694.694 0 0 1-.02-.145l.95-11.803a.364.364 0 0 1 .13-.255.36.36 0 0 1 .27-.088c.1.008.19.055.26.13.06.076.09.174.09.273l-.98 11.796c0 .095-.04.184-.11.249a.395.395 0 0 1-.26.101ZM1201.36 163.662a.355.355 0 0 1-.25-.13.345.345 0 0 1-.08-.128.354.354 0 0 1-.01-.145l.97-11.796a.404.404 0 0 1 .13-.253.4.4 0 0 1 .27-.09c.05.004.1.017.14.04.05.022.09.053.12.091.03.037.05.081.07.128a.35.35 0 0 1 .01.144l-.99 11.796a.393.393 0 0 1-.13.243.347.347 0 0 1-.25.1ZM1208.65 164.289a.34.34 0 0 1-.14-.04.317.317 0 0 1-.12-.09.329.329 0 0 1-.07-.128c-.02-.047-.02-.096-.02-.145l.98-11.796a.359.359 0 0 1 .13-.251.385.385 0 0 1 .27-.092c.05.004.1.017.14.039.04.023.08.054.12.091.03.037.05.081.07.128.01.047.02.096.01.145l-.97 11.796c0 .049-.02.096-.04.14a.375.375 0 0 1-.36.203ZM1215.94 164.856a.34.34 0 0 1-.14-.04.626.626 0 0 1-.12-.09.544.544 0 0 1-.07-.128c-.01-.047-.02-.096-.01-.145l.97-11.796a.404.404 0 0 1 .13-.253.385.385 0 0 1 .27-.09c.05.004.1.017.14.04.05.022.08.053.12.09.03.038.05.082.07.128.01.047.01.096.01.145l-.97 11.796c-.01.048-.02.096-.04.14a.375.375 0 0 1-.36.203ZM1223.2 165.453a.465.465 0 0 1-.15-.04.379.379 0 0 1-.18-.218c-.02-.047-.02-.096-.02-.145l.97-11.796a.466.466 0 0 1 .14-.249.39.39 0 0 1 .27-.094.355.355 0 0 1 .25.13c.04.037.06.081.08.128.01.046.02.096.01.145l-.97 11.795a.36.36 0 0 1-.04.143.36.36 0 0 1-.36.201ZM1230.52 166.049a.34.34 0 0 1-.14-.039.309.309 0 0 1-.12-.091.518.518 0 0 1-.07-.127.703.703 0 0 1-.02-.145l.95-11.804a.361.361 0 0 1 .13-.253.361.361 0 0 1 .52.043c.06.075.1.172.09.27l-.97 11.803a.378.378 0 0 1-.37.343Z" opacity=".2"/>
      <path fill="#407BFF" d="M1168.59 246.112c-1.14-6.274-10.3-5.827-10.82.522l-1.65 20.003c-.19 2.314.2 4.64 1.12 6.77a14.083 14.083 0 0 0 4.2 5.436 14.044 14.044 0 0 0-5.03 4.686 14.018 14.018 0 0 0-2.21 6.505l-6.46 78.34c-.3 3.724.89 7.417 3.31 10.266a14.18 14.18 0 0 0 9.62 4.932l17.2 1.41c1.9.154 3.81-.127 5.57-.824a12.446 12.446 0 0 0 4.64-3.194 12.548 12.548 0 0 0 2.74-4.907c.52-1.823.62-3.742.28-5.609l-22.51-124.336Z" opacity=".2"/>
      <path fill="#407BFF" d="M1234.79 348.692a7.292 7.292 0 0 1-5.05 6.349 7.343 7.343 0 0 1-7.82-2.227 7.295 7.295 0 0 1-1.69-3.887 7.33 7.33 0 0 1 .76-4.167 7.316 7.316 0 0 1 7.11-3.939 7.343 7.343 0 0 1 4.98 2.554 7.299 7.299 0 0 1 1.71 5.317ZM1211.53 320.438a5.098 5.098 0 0 1-1.1 2.788 5.21 5.21 0 0 1-2.47 1.706 5.172 5.172 0 0 1-5.53-1.574 5.206 5.206 0 0 1-1.2-2.751 5.192 5.192 0 0 1 .54-2.949 5.214 5.214 0 0 1 2.09-2.154 5.187 5.187 0 0 1 6.46 1.175 5.146 5.146 0 0 1 1.21 3.759ZM1189.89 257.55a5.201 5.201 0 0 1-2.91-.735 5.234 5.234 0 0 1-2.01-2.224 5.136 5.136 0 0 1-.44-2.965 5.285 5.285 0 0 1 1.29-2.706 5.185 5.185 0 0 1 7.99.399c.61.82.96 1.802 1.01 2.822.04.678-.06 1.356-.29 1.995a5.145 5.145 0 0 1-1.05 1.729c-.45.503-1.01.91-1.62 1.199a5.25 5.25 0 0 1-1.97.486ZM1204.01 226.684a3.673 3.673 0 0 1-3.5-2.088 3.625 3.625 0 0 1-.31-2.102c.11-.715.43-1.383.91-1.919a3.68 3.68 0 0 1 3.96-.982c.68.245 1.27.687 1.71 1.269.43.582.67 1.279.71 2.002a3.66 3.66 0 0 1-3.48 3.82ZM1226.72 298.122c-.04.42-.2.82-.46 1.15a2.139 2.139 0 0 1-2.26.723 2.18 2.18 0 0 1-1.05-.672 2.14 2.14 0 0 1-.27-2.354c.2-.375.5-.685.87-.89a2.138 2.138 0 0 1 2.67.486c.36.433.54.992.5 1.557Z" opacity=".3"/>
      <path fill="#fff" d="M1187.97 356.496h-.36a4.32 4.32 0 0 1-1.64-.447 4.347 4.347 0 0 1-1.35-1.045 4.211 4.211 0 0 1-.82-1.473 4.325 4.325 0 0 1-.19-1.676 4.29 4.29 0 0 1 .9-2.295 4.377 4.377 0 0 1 2.01-1.432c.8-.273 1.65-.308 2.47-.103a4.35 4.35 0 0 1 2.12 1.261c.57.616.95 1.385 1.09 2.212.14.828.03 1.677-.3 2.446a4.304 4.304 0 0 1-1.6 1.882c-.7.46-1.52.706-2.36.707l.03-.037Zm0-8.088a3.735 3.735 0 0 0-3.63 2.938c-.18.83-.08 1.695.3 2.455a3.75 3.75 0 0 0 4.25 1.959 3.699 3.699 0 0 0 2.07-1.357 3.71 3.71 0 0 0-.11-4.667 3.754 3.754 0 0 0-2.56-1.313l-.32-.015ZM1234.24 269.189h-.27a3.157 3.157 0 0 1-2.14-1.096 3.164 3.164 0 0 1-.74-2.284c.07-.83.47-1.599 1.11-2.138a3.15 3.15 0 0 1 4.43.362c.54.633.81 1.455.74 2.283a3.19 3.19 0 0 1-1.1 2.142c-.57.476-1.29.736-2.03.731Zm-2.58-3.35a2.553 2.553 0 0 0 1.41 2.49c.45.23.96.321 1.47.262s.98-.267 1.37-.596c.26-.219.48-.488.63-.789a2.54 2.54 0 0 0 .16-1.971c-.1-.323-.27-.622-.49-.881a2.54 2.54 0 0 0-1.79-.836c-.34-.028-.68.01-1.01.113a2.61 2.61 0 0 0-1.51 1.277c-.15.301-.25.63-.27.968l.03-.037ZM1185.91 203.04h-.11a1.5 1.5 0 0 1-1-.519 1.47 1.47 0 0 1-.35-1.062c.02-.29.12-.569.3-.801.17-.232.41-.408.69-.507.27-.098.57-.114.85-.046.29.068.54.217.74.429.2.212.34.478.39.765.05.286.01.581-.1.848-.12.267-.31.494-.55.655-.25.16-.53.245-.82.246l-.04-.008Zm-.91-1.536c-.01.177.03.355.11.511a.923.923 0 0 0 .9.457.912.912 0 0 0 .77-.648 1.03 1.03 0 0 0-.01-.523.911.911 0 0 0-1.45-.417.848.848 0 0 0-.22.278.825.825 0 0 0-.1.342ZM1218.98 241.68h-.31a3.751 3.751 0 0 1-2.56-1.308 3.717 3.717 0 0 1-.71-1.281 3.584 3.584 0 0 1-.16-1.454c.06-.721.33-1.407.78-1.976a3.739 3.739 0 0 1 1.74-1.228 3.753 3.753 0 0 1 3.96 1.008c.49.532.81 1.195.93 1.909.12.713.03 1.445-.26 2.108a3.76 3.76 0 0 1-1.37 1.624c-.61.398-1.32.611-2.04.613v-.015Zm0-6.938a3.142 3.142 0 0 0-2.05.746 3.161 3.161 0 0 0-1.12 2.164c-.05.521.04 1.045.25 1.525s.53.901.94 1.227c.42.325.9.544 1.42.638.51.094 1.04.059 1.54-.101a3.195 3.195 0 0 0 2.1-2.153c.14-.503.16-1.034.05-1.546a3.175 3.175 0 0 0-.68-1.389 3.1 3.1 0 0 0-.98-.774c-.37-.19-.78-.305-1.2-.337h-.27Z" opacity=".7"/>
      <path fill="#fff" d="m1249.67 274.3 4.83-58.591c.03-.374-.01-.751-.13-1.108a2.814 2.814 0 0 0-1.42-1.668 2.892 2.892 0 0 0-2.19-.18c-.36.114-.69.298-.97.54-.29.243-.53.54-.7.874-.17.334-.28.698-.31 1.072l-4.83 58.59a11.643 11.643 0 0 1-1.86 5.467 11.823 11.823 0 0 1-4.23 3.934l-2.94 1.634 2.64 2.082a11.791 11.791 0 0 1 3.53 4.57c.79 1.792 1.11 3.748.96 5.696l-6.46 78.339c-.39 4.701-3.35 6.991-7.52 8.819-.26.118-.48.32-.62.575a1.33 1.33 0 0 0-.13.832c.04.285.19.546.4.743.21.196.48.316.77.342 3.14.256 6.25-.742 8.66-2.775 2.4-2.033 3.9-4.934 4.15-8.066l6.46-78.339c.16-1.948-.17-3.905-.95-5.696-.78-1.792-2-3.362-3.54-4.57l-2.64-2.089 2.94-1.627a11.77 11.77 0 0 0 4.23-3.935 11.764 11.764 0 0 0 1.87-5.465Z" opacity=".3"/>
      <path fill="#407BFF" d="M1327.31 365.352c-.81-3.656-10.89-1.492-12.98-1.156a61.314 61.314 0 0 0-11.85 3.409c-4.21 1.649-9.1 4.074-13.46 1.567-2.52-1.447 6.23-4.305 7.02-4.596a64.152 64.152 0 0 0 10.73-4.909c1.38-.821 4.06-2.783 2.91-4.775-.96-1.649-4.39-1.492-6.48-1.239a77.435 77.435 0 0 0-18.47 4.619 184.445 184.445 0 0 0-16.95 7.737 21.835 21.835 0 0 1-6.87 2.469c-2.63.373-5.86-.186-6.9-1.641s.3-3.156.61-4.618a7.842 7.842 0 0 0-.52-5.223 5.513 5.513 0 0 0-2.43-2.552c-2.85-1.492-7.16-.94-10.02.239a16.373 16.373 0 0 0-5 3.298 20.101 20.101 0 0 0-5.9 10.109 9.356 9.356 0 0 1-1.38 3.404 9.453 9.453 0 0 1-2.58 2.617c-4.01 2.694-11.36 2.537-16.98 1.186-9.8-2.32-17.28-7.744-19.08-13.869-.88-2.918-1.31-5.969-5.24-7.111-2.54-.746-7.87-.223-6.73 2.985.41.879.95 1.693 1.6 2.417 1.04 1.365 2.14 3.939-.94 4.768-1 .211-2.03.262-3.05.149-9.93-.664-19.07-3.969-25-8.625a20.075 20.075 0 0 1-4.83-5.469c-.7-1.156-.96-2.402-1.73-3.544a6.81 6.81 0 0 0-2.99-2.484c-3.81-1.634-12.77-.784-13.4 2.798-.34 1.94.87 4.043 1.49 5.886.11.233.14.497.08.746-.18.47-.89.605-1.5.642-8.01.53-15.78-2.574-22.51-5.812-7.12-3.432-14.96-7.901-24.85-7.953-2.05-.093-4.1.141-6.07.694-.5.132-.96.372-1.36.701-.24.251-.4.569-.46.912-.06.343-.01.696.13 1.013.32.657.8 1.226 1.39 1.656 2.99 2.432 7.18 3.417 11.01 4.671 11.34 3.666 22.3 8.4 32.74 14.138 1.06.589 2.93 1.955 1.45 2.984-1.48 1.03-4.49.366-6.26.075-3.22-.522-6.31-1.358-9.44-2.141-4.15-1.045-8.98-1.992-13.47-1.127-2.37.455-4.49 1.425-5.6 2.738-.38.384-.64.88-.72 1.415-.09.536 0 1.085.24 1.57 1.54 2.738 8.57 3.917 12.4 5.222 4.92 1.673 9.72 3.649 14.39 5.917 3.98 1.969 7.69 4.126 11.73 6.058 14.42 6.901 34.58 7.789 52.6 8.461 19.56.746 39.21.112 58.71-.97 14.22-.791 28.17-2.351 42.09-4.186 4-.522 7.98-1.164 11.97-1.708a75.1 75.1 0 0 0 11.97-2.366 10.092 10.092 0 0 0 3.85-1.924c1.07-.993 1.41-2.291-.51-2.664-4.01-.798-8.14.112-12.06.821-4.39.806-8.75 1.733-13.07 2.783-1.97.523-3.97.93-5.98 1.216-2.03.284-4.1.152-6.07-.388-.64-.202-1.35-.56-1.38-1.127-.04-.567.5-.925 1.05-1.141 8.07-3.194 16.64-5.223 25.28-7.088 5.85-1.269 11.81-2.044 17.72-3.037 5.37-.903 11.04-1.111 15.7-4.514a5.384 5.384 0 0 0 2.07-2.484c.2-.525.25-1.097.14-1.649ZM1095.85 335.143c-2.19-6.215-10-17.22-11.65-10.721-.88 3.648 11.65 10.721 11.65 10.721ZM1291.96 347.378c4.17-3.797 9.38-6.057 10.05-2.715.63 3.163-10.05 2.715-10.05 2.715ZM1120.72 317.177c-2.86-1.492-5.09-3.887-3.41-4.887 1.67-.999 3.41 4.887 3.41 4.887Z" opacity=".3"/>
    </g>
  </g>
  <defs>
    <clipPath id="a">
      <path fill="#fff" d="M0 0h1440v432H0z"/>
    </clipPath>
    <clipPath id="b">
      <path fill="#fff" d="M1016 124h374v278h-374z"/>
    </clipPath>
  </defs>
</svg>
