<svg xmlns="http://www.w3.org/2000/svg" width="280" height="208" fill="none">
  <g clip-path="url(#a)">
    <path fill="#1B1B21" d="M140 208c59.966 0 108.579-2.829 108.579-6.319 0-3.49-48.613-6.319-108.579-6.319-59.966 0-108.578 2.829-108.578 6.319 0 3.49 48.612 6.319 108.578 6.319Z"/>
    <path fill="#5082F2" d="M76.888 157.564a1.988 1.988 0 0 1 2.128-1.713c4.794-.073 9.28 3.304 13.44 6.927.924.798 1.927 1.625 2.963.787a2.08 2.08 0 0 0 .672-1.016 3.74 3.74 0 0 0 0-1.987 4.331 4.331 0 0 0-.756-1.479c-1.81-2.373-4.01-3.511-5.796-5.962-1-1.404-1.83-2.922-2.47-4.522-.56-1.406-1.68-3.678-1.232-5.582.498-2.277 2.206-2.082 3.242-1.77 3.277.977 6.334 3.305 9.112 6.202 2.962 3.082 5.645 6.794 8.316 10.484 1.008 1.401 2.072 2.841 3.36 3.349 1.288.508 2.917-.312 3.461-2.333.543-2.021-.096-4.343-.23-6.353a29.264 29.264 0 0 1 .347-7.179 9.766 9.766 0 0 1 1.249-3.55c1.445-2.11 3.584-1.368 4.984.229a14.644 14.644 0 0 1 2.442 4.466 51.257 51.257 0 0 1 2.8 13.872c.212 2.93.66 5.984 1.87 8.256 1.954 3.673 5.6 3.383 8.428 1.457 4.922-3.35 8.719-10.919 9.733-19.382.33-2.757.414-5.738 1.422-8.049.879-1.999 3.136-3.35 4.239-1.195a6.057 6.057 0 0 1 .359 3.405 24.158 24.158 0 0 1-.835 3.35c-.56 1.897-1.12 5.453.392 6.564a1.812 1.812 0 0 0 1.518.168c4.95-1.027 9.554-5.672 12.578-12.153a38.339 38.339 0 0 0 2.497-7.597c.364-1.597.515-3.311.919-4.896a8.902 8.902 0 0 1 1.534-3.455c1.926-2.3 6.373-1.217 6.625 3.712.151 2.852-.611 5.644-.891 8.435-.173 1.741.908 1.73 1.714 1.674 3.864-.39 7.28-4.276 10.31-8.317 3.6-4.807 7.588-11.047 12.504-11.232 1.12-.039 2.985.106 3.657 1.831a5.718 5.718 0 0 1 0 3.238c-.997 4.12-3.92 6.247-6.16 8.284a104.31 104.31 0 0 0-16.537 19.839c-.711 1.117-1.444 2.959-.767 4.053a1.223 1.223 0 0 0 1.26.558c2.313-.178 4.48-2.009 6.591-3.528 2.112-1.518 4.508-2.847 6.72-1.702a6.014 6.014 0 0 1 2.75 3.717 8.732 8.732 0 0 1 .185 4.154c-.812 3.79-4.323 5.493-6.255 7.363a64.485 64.485 0 0 0-7.28 8.312c-2.016 2.752-3.92 5.766-5.936 8.468-7.28 9.674-17.36 11.109-26.32 12.231-9.75 1.217-19.522.558-29.216-.721-7.05-.937-14-2.936-20.882-5.308-2.363-.854-4.71-1.787-7.028-2.892-2.492-1.183-6.16-1.915-7.118-6.576-.201-1.005.034-1.82.7-2.194 2.067-1.172 5.012.397 6.956 1.43 2.682 1.429 5.224 3.466 7.98 4.566a3.656 3.656 0 0 0 2.867.151 2.132 2.132 0 0 0 1.058-.966 2.568 2.568 0 0 0 .202-1.837 2.203 2.203 0 0 0-.56-.876 53.306 53.306 0 0 0-17.428-11.846c-2.1-.898-4.244-1.635-6.266-2.908a14.068 14.068 0 0 1-4.144-3.908c-.94-1.501-2.453-4.153-1.977-6.548ZM183.999 116.529a2.49 2.49 0 0 1-2.95.466 2.472 2.472 0 0 1-1.261-2.699c1.932-9.35 6.132-16.15 11.127-12.621 3.73 2.629-2.117 9.88-6.916 14.854Z" opacity=".1"/>
    <path fill="#5082F2" d="M170.447 120.895a10.56 10.56 0 0 0 3.77-3.507 10.512 10.512 0 0 0 1.656-4.867l3.786-45.97a16.978 16.978 0 0 0-4.531-13.007l-11.664-12.453a6.775 6.775 0 0 1-1.798-5.158l.56-6.732-30.19-2.473-.56 6.732a6.75 6.75 0 0 1-2.615 4.795l-13.552 10.4a17.042 17.042 0 0 0-4.58 5.354 16.986 16.986 0 0 0-2.017 6.743l-3.791 45.969a10.503 10.503 0 0 0 .84 5.065 10.537 10.537 0 0 0 3.142 4.068 10.537 10.537 0 0 0-3.769 3.506 10.5 10.5 0 0 0-1.652 4.867l-4.833 58.614a10.529 10.529 0 0 0 2.478 7.681 10.6 10.6 0 0 0 7.199 3.69l49.84 4.08a10.604 10.604 0 0 0 7.707-2.464 10.515 10.515 0 0 0 3.7-7.176l4.833-58.614a10.497 10.497 0 0 0-.827-5.067 10.535 10.535 0 0 0-3.132-4.076Z" opacity=".3"/>
    <path fill="#5082F2" d="m132.045 26.738-.428 5.19 30.183 2.474.428-5.19-30.183-2.474Z" opacity=".3"/>
    <path fill="#1C1D26" d="M174.849 54.745 163.184 42.28s-7.521.324-1.68 9.518c4.979 7.776 13.653 6.564 13.345 2.947Z" opacity=".3"/>
    <path fill="#5082F2" d="M98.655 182.818a10.529 10.529 0 0 0 2.478 7.682 10.598 10.598 0 0 0 7.199 3.69l49.84 4.08a10.597 10.597 0 0 0 7.707-2.464 10.555 10.555 0 0 0 2.566-3.222 10.515 10.515 0 0 0 1.134-3.954l-70.924-5.812Z" opacity=".2"/>
    <path fill="#5082F2" d="M172.67 55.822a13.65 13.65 0 0 1 3.64 10.445l-3.785 45.975a7.2 7.2 0 0 1-3.707 5.705l-4.408 2.434 3.948 3.121a7.172 7.172 0 0 1 2.722 6.229l-4.833 58.614a7.188 7.188 0 0 1-2.517 4.895 7.237 7.237 0 0 1-5.25 1.692l-49.84-4.081a7.24 7.24 0 0 1-4.929-2.507 7.198 7.198 0 0 1-1.707-5.246l4.833-58.614a7.168 7.168 0 0 1 1.131-3.319 7.217 7.217 0 0 1 2.57-2.392l4.408-2.434-3.92-3.12a7.165 7.165 0 0 1-2.722-6.23l3.791-45.97c.157-1.897.71-3.741 1.624-5.414a13.695 13.695 0 0 1 3.679-4.299c4.48-2.886 16.24 4.299 30.011 5.426 13.77 1.128 22.383-2.355 25.261-.91Z" opacity=".3"/>
    <path fill="#5082F2" d="M147.38 56.738c-13.765-1.117-25.536-8.318-30.016-5.432 7.84 4.299 16.8 6.961 29.798 8.028 12.997 1.066 25.508-3.512 25.508-3.512-2.879-1.445-11.525 2.05-25.29.916ZM104.927 106.721a10.515 10.515 0 0 0 3.982 9.133l61.538 5.024a10.521 10.521 0 0 0 5.427-8.373l-70.947-5.784Z" opacity=".2"/>
    <path fill="#5082F2" d="m162.859 20.979-30.099-2.475a2.288 2.288 0 0 0-2.47 2.088l-.6 7.3a2.287 2.287 0 0 0 2.096 2.463l30.098 2.474a2.287 2.287 0 0 0 2.47-2.088l.6-7.3a2.286 2.286 0 0 0-2.095-2.462Z"/>
    <path fill="#1C1D26" d="M133.313 29.229a.277.277 0 0 1-.191-.098.275.275 0 0 1-.066-.204l.705-8.83a.28.28 0 0 1 .303-.258.28.28 0 0 1 .257.302l-.728 8.825a.277.277 0 0 1-.28.263ZM138.773 29.675a.277.277 0 0 1-.192-.097.285.285 0 0 1-.065-.204l.728-8.826a.284.284 0 0 1 .302-.257.275.275 0 0 1 .252.302l-.745 8.825a.284.284 0 0 1-.28.257ZM144.228 30.144a.279.279 0 0 1-.257-.301l.728-8.826a.288.288 0 0 1 .302-.257.282.282 0 0 1 .245.193.267.267 0 0 1 .013.109l-.728 8.825a.277.277 0 0 1-.098.191.283.283 0 0 1-.205.066ZM149.688 30.568a.277.277 0 0 1-.191-.097.275.275 0 0 1-.066-.204l.728-8.826a.285.285 0 0 1 .302-.257.275.275 0 0 1 .242.194c.01.035.014.072.01.108l-.728 8.825a.257.257 0 0 1-.028.105.266.266 0 0 1-.161.14.274.274 0 0 1-.108.012ZM155.12 31.015a.282.282 0 0 1-.192-.097.273.273 0 0 1-.053-.096.267.267 0 0 1-.013-.109l.728-8.825a.297.297 0 0 1 .303-.257.277.277 0 0 1 .191.097c.024.028.042.06.054.096a.285.285 0 0 1 .012.108l-.728 8.826a.264.264 0 0 1-.028.106.273.273 0 0 1-.274.15ZM160.602 31.461a.282.282 0 0 1-.245-.192.285.285 0 0 1-.012-.109l.705-8.831a.286.286 0 0 1 .303-.257.28.28 0 0 1 .252.302l-.723 8.83a.284.284 0 0 1-.28.257Z" opacity=".2"/>
    <path fill="#5082F2" d="M114.24 91.365c-.851-4.695-7.711-4.36-8.103.39l-1.232 14.966a10.502 10.502 0 0 0 .839 5.065 10.537 10.537 0 0 0 3.142 4.068 10.534 10.534 0 0 0-3.768 3.506 10.497 10.497 0 0 0-1.653 4.867l-4.832 58.614a10.527 10.527 0 0 0 2.478 7.681 10.596 10.596 0 0 0 7.198 3.69l12.88 1.055a9.304 9.304 0 0 0 7.638-3.006 9.232 9.232 0 0 0 2.263-7.868l-16.85-93.028Z" opacity=".2"/>
    <path fill="#5082F2" d="M163.799 168.115a5.44 5.44 0 0 1-1.169 2.947 5.488 5.488 0 0 1-8.465.137 5.44 5.44 0 0 1-.696-6.026 5.467 5.467 0 0 1 2.211-2.278 5.484 5.484 0 0 1 6.836 1.242 5.454 5.454 0 0 1 1.283 3.978ZM146.39 146.975a3.865 3.865 0 0 1-2.676 3.363 3.884 3.884 0 0 1-4.141-1.178 3.854 3.854 0 0 1 1.073-5.876 3.89 3.89 0 0 1 2.199-.474 3.89 3.89 0 0 1 2.636 1.353 3.86 3.86 0 0 1 .909 2.812ZM130.188 99.922a3.885 3.885 0 0 1-2.18-.55 3.866 3.866 0 0 1-1.832-3.882c.113-.755.449-1.46.964-2.025a3.88 3.88 0 0 1 4.177-1.038 3.86 3.86 0 0 1 2.339 4.94 3.879 3.879 0 0 1-3.468 2.554ZM140.756 76.828a2.753 2.753 0 0 1-2.618-1.562 2.729 2.729 0 0 1 .45-3.009 2.744 2.744 0 0 1 2.961-.734 2.74 2.74 0 0 1 1.811 2.447 2.729 2.729 0 0 1-.71 1.966 2.747 2.747 0 0 1-1.894.892ZM157.757 130.278a1.59 1.59 0 0 1-1.108 1.387 1.606 1.606 0 0 1-1.709-.488 1.59 1.59 0 0 1 .442-2.427 1.603 1.603 0 0 1 2.375 1.528Z" opacity=".3"/>
    <path fill="#1C1D26" d="M128.75 173.954h-.269a3.245 3.245 0 0 1-2.24-1.117 3.185 3.185 0 0 1-.756-2.355 3.232 3.232 0 0 1 2.178-2.789 3.25 3.25 0 0 1 3.437.866 3.224 3.224 0 0 1-.607 4.894 3.247 3.247 0 0 1-1.771.529l.028-.028Zm0-6.051a2.803 2.803 0 0 0-2.723 2.198 2.786 2.786 0 0 0 1.561 3.126 2.804 2.804 0 0 0 3.401-.839 2.792 2.792 0 0 0 .574-1.761 2.794 2.794 0 0 0-1.519-2.414c-.33-.168-.69-.27-1.059-.299l-.235-.011ZM163.386 108.63h-.196a2.358 2.358 0 0 1-1.602-.82 2.339 2.339 0 0 1 .271-3.308 2.364 2.364 0 0 1 3.32.271c.404.474.603 1.088.553 1.708a2.376 2.376 0 0 1-.823 1.602 2.347 2.347 0 0 1-1.523.547Zm-1.932-2.506a1.935 1.935 0 0 0 2.158 2.059 1.937 1.937 0 0 0 1.707-1.762 1.921 1.921 0 0 0-.455-1.408 1.906 1.906 0 0 0-.609-.447 1.904 1.904 0 0 0-.735-.178 1.932 1.932 0 0 0-2.089 1.764l.023-.028ZM127.204 59.138h-.084a1.121 1.121 0 0 1-1.008-1.183 1.119 1.119 0 0 1 1.379-1.013 1.122 1.122 0 0 1 .842.893 1.123 1.123 0 0 1-.487 1.124c-.183.12-.396.184-.614.185l-.028-.006Zm-.678-1.15a.68.68 0 0 0 .367.655.677.677 0 0 0 .732-1.13.682.682 0 0 0-1.028.22.672.672 0 0 0-.071.255ZM151.967 88.049h-.236a2.808 2.808 0 0 1-1.917-.98 2.789 2.789 0 0 1-.653-2.046 2.79 2.79 0 0 1 1.888-2.397 2.81 2.81 0 0 1 2.963.754 2.79 2.79 0 0 1-2.051 4.68l.006-.011Zm0-5.192a2.383 2.383 0 0 0-2.38 2.177 2.377 2.377 0 0 0 .897 2.06 2.396 2.396 0 0 0 3.784-1.21 2.371 2.371 0 0 0-1.201-2.774 2.375 2.375 0 0 0-.899-.253h-.201Z" opacity=".7"/>
    <path fill="#1C1D26" d="m174.938 112.454 3.617-43.837a2.12 2.12 0 0 0-.503-1.559 2.15 2.15 0 0 0-1.462-.747 2.148 2.148 0 0 0-1.564.498 2.138 2.138 0 0 0-.749 1.456l-3.618 43.838a8.817 8.817 0 0 1-1.392 4.09 8.859 8.859 0 0 1-3.172 2.943l-2.2 1.223 1.976 1.557a8.87 8.87 0 0 1 2.648 3.42 8.827 8.827 0 0 1 .712 4.261l-4.832 58.614c-.292 3.517-2.509 5.23-5.628 6.598a.977.977 0 0 0 .313 1.865 8.92 8.92 0 0 0 6.481-2.077 8.859 8.859 0 0 0 3.112-6.034l4.833-58.614a8.852 8.852 0 0 0-3.36-7.681l-1.977-1.563 2.201-1.217a8.873 8.873 0 0 0 3.169-2.945 8.836 8.836 0 0 0 1.395-4.089Z" opacity=".3"/>
    <path fill="#5082F2" d="M233.067 180.58c-.605-2.735-8.154-1.116-9.716-.865a45.739 45.739 0 0 0-8.871 2.551c-3.152 1.234-6.815 3.048-10.08 1.172-1.887-1.083 4.665-3.221 5.259-3.439a47.909 47.909 0 0 0 8.03-3.673c1.036-.614 3.041-2.082 2.179-3.572-.717-1.234-3.288-1.117-4.85-.927a57.903 57.903 0 0 0-13.826 3.455 137.341 137.341 0 0 0-12.69 5.789 16.388 16.388 0 0 1-5.146 1.848c-1.972.279-4.385-.14-5.164-1.228-.778-1.089.224-2.361.454-3.456a5.857 5.857 0 0 0-.386-3.907 4.136 4.136 0 0 0-1.82-1.909c-2.134-1.117-5.36-.704-7.504.178a12.322 12.322 0 0 0-3.747 2.468 15.067 15.067 0 0 0-4.413 7.564 7.041 7.041 0 0 1-2.968 4.505c-3.001 2.015-8.5 1.898-12.706.887-7.342-1.736-12.942-5.794-14.291-10.377-.655-2.183-.975-4.466-3.92-5.32-1.904-.558-5.891-.168-5.04 2.233a7.43 7.43 0 0 0 1.198 1.808c.779 1.022 1.607 2.948-.705 3.567a7.156 7.156 0 0 1-2.28.112c-7.436-.497-14.28-2.97-18.715-6.453a15.03 15.03 0 0 1-3.617-4.092c-.527-.865-.717-1.797-1.294-2.651a5.137 5.137 0 0 0-2.24-1.859c-2.856-1.223-9.565-.586-10.035 2.093-.252 1.452.655 3.026 1.12 4.405a.823.823 0 0 1 .056.558c-.135.351-.667.452-1.12.48-5.998.396-11.816-1.926-16.85-4.349-5.332-2.568-11.2-5.911-18.61-5.95a14.388 14.388 0 0 0-4.541.519 2.676 2.676 0 0 0-1.02.524 1.3 1.3 0 0 0-.246 1.441c.24.491.599.917 1.042 1.239 2.24 1.82 5.376 2.557 8.238 3.494 8.49 2.744 16.7 6.286 24.516 10.579.79.441 2.19 1.462 1.081 2.233-1.109.77-3.36.273-4.687.056-2.408-.391-4.72-1.016-7.067-1.603-3.103-.781-6.72-1.49-10.08-.843-1.775.341-3.36 1.067-4.195 2.049a1.93 1.93 0 0 0-.358 2.233c1.154 2.049 6.412 2.931 9.285 3.908a93.911 93.911 0 0 1 10.769 4.426c2.984 1.474 5.756 3.087 8.78 4.533 10.803 5.164 25.889 5.828 39.38 6.33 14.644.559 29.355.084 43.96-.725 10.64-.592 21.084-1.759 31.511-3.132 2.996-.391 5.975-.871 8.96-1.278a56.22 56.22 0 0 0 8.96-1.77 7.584 7.584 0 0 0 2.884-1.44c.801-.742 1.053-1.714-.381-1.993-3.002-.597-6.093.084-9.027.614a175.292 175.292 0 0 0-9.789 2.082c-1.474.392-2.97.696-4.48.91a11.284 11.284 0 0 1-4.542-.29c-.481-.151-1.008-.419-1.036-.843-.028-.424.376-.692.79-.854 6.042-2.389 12.46-3.908 18.922-5.303 4.385-.949 8.848-1.53 13.267-2.272 4.026-.676 8.271-.832 11.76-3.377a4.016 4.016 0 0 0 1.545-1.859c.152-.393.189-.821.107-1.234ZM59.78 157.978c-1.64-4.65-7.487-12.884-8.72-8.022-.66 2.73 8.72 8.022 8.72 8.022ZM206.602 167.132c3.124-2.841 7.022-4.532 7.526-2.032.47 2.367-7.526 2.032-7.526 2.032ZM78.4 144.535c-2.139-1.116-3.807-2.908-2.553-3.656 1.254-.748 2.554 3.656 2.554 3.656Z" opacity=".3"/>
  </g>
  <defs>
    <clipPath id="a">
      <path fill="#fff" d="M0 0h280v208H0z"/>
    </clipPath>
  </defs>
</svg>
