<svg xmlns="http://www.w3.org/2000/svg" width="320" height="952" fill="none">
  <g clip-path="url(#a)">
    <path fill="#9EBBFF" fill-rule="evenodd" d="m-747 294 113.542 13.708c113.541 13.709 340.625 41.125 567.708 137.084C161.333 540.75 388.417 705.25 615.5 787.5c227.083 82.25 454.17 82.25 681.25 95.958 227.08 13.709 454.17 41.125 567.71 54.834L1978 952H-747V294Z" clip-rule="evenodd"/>
    <path fill="#ECF2FF" fill-rule="evenodd" d="M2389-182h-90.86c-90.86 0-272.58 0-454.31 57.75-181.72 55.125-363.44 168-545.16 168-181.73 0-363.448-112.875-545.17-18.375C571.778 119.875 390.056 421.75 208.333 574 26.611 726.25-155.111 726.25-336.833 686.875-518.556 650.125-700.278 574-791.139 537.25L-882 497.875V952h3271V-182Z" clip-rule="evenodd" opacity=".8"/>
    <g clip-path="url(#b)">
      <path fill="#C6D7FF" d="M302.482 157.784h-2.072a25.08 25.08 0 0 1-17.269-8.636 24.789 24.789 0 0 1-5.828-18.221 25.005 25.005 0 0 1 5.185-13.284 25.001 25.001 0 0 1 25.851-8.881 25.004 25.004 0 0 1 18.526 20.1A25.002 25.002 0 0 1 302.266 158l.216-.216Zm0-46.805a21.583 21.583 0 0 0-20.986 17.003 21.591 21.591 0 0 0 12.034 24.182 21.584 21.584 0 0 0 30.639-20.11 21.593 21.593 0 0 0-5.066-13.389 21.595 21.595 0 0 0-14.808-7.6l-1.813-.086Z" opacity=".7"/>
      <path fill="#C6D7FF" d="M289.201 372.669a12.004 12.004 0 0 1-8.292 10.44 11.995 11.995 0 0 1-12.819-3.662 11.994 11.994 0 0 1-1.524-13.245 11.995 11.995 0 0 1 11.653-6.478 12.01 12.01 0 0 1 10.982 12.945Z"/>
      <path fill="#ECF2FF" d="M36.794 160.405a12.002 12.002 0 0 1-15.256 10.554 12 12 0 0 1 4.274-23.499 12.015 12.015 0 0 1 10.982 12.945ZM228.166 237.95a7.998 7.998 0 0 1-5.527 6.96 8.004 8.004 0 0 1-8.547-2.441 7.998 7.998 0 0 1 2.213-12.168 8.008 8.008 0 0 1 4.54-.981 8.01 8.01 0 0 1 7.321 8.63Z"/>
      <path fill="#C6D7FF" d="M52.959 528.001h-1.327a16.057 16.057 0 0 1-11.051-5.527 15.864 15.864 0 0 1-3.73-11.662 15.996 15.996 0 0 1 31.72-1.322 16.001 16.001 0 0 1-15.75 18.649l.138-.138Zm0-29.955a13.812 13.812 0 0 0-13.431 10.881 13.819 13.819 0 0 0 7.702 15.477 13.81 13.81 0 0 0 16.778-4.157 13.82 13.82 0 0 0-.412-17.283 13.824 13.824 0 0 0-9.477-4.863l-1.16-.055Z" opacity=".7"/>
      <path fill="#C6D7FF" d="M310.591 693.085a11.992 11.992 0 0 1-8.291 10.441 11.995 11.995 0 0 1-12.82-3.662 12 12 0 0 1 10.129-19.723 12.012 12.012 0 0 1 10.982 12.944Z"/>
      <path fill="#9EBBFF" d="M19.2 818.004h-1.576A19.077 19.077 0 0 1 4.5 811.441a18.837 18.837 0 0 1-4.43-13.848 19 19 0 0 1 23.588-16.846 18.994 18.994 0 0 1 14.08 15.276 19.002 19.002 0 0 1-18.703 22.145l.164-.164Zm0-35.572a16.402 16.402 0 0 0-15.95 12.922 16.408 16.408 0 0 0 19.975 19.412 16.406 16.406 0 0 0 12.456-16.317 16.41 16.41 0 0 0-3.85-10.176 16.393 16.393 0 0 0-11.254-5.776l-1.378-.065Z" opacity=".7"/>
      <path fill="#C6D7FF" d="M163.711 937.765a13.003 13.003 0 0 1-16.528 11.433 13.001 13.001 0 0 1-2.746-23.862 13.01 13.01 0 0 1 7.377-1.595 13.02 13.02 0 0 1 8.85 4.551 13.008 13.008 0 0 1 3.047 9.473Z"/>
      <path fill="#9EBBFF" d="M277.131 922.204h-1.327a16.042 16.042 0 0 1-11.052-5.526 15.866 15.866 0 0 1-3.73-11.662 16.007 16.007 0 0 1 10.746-13.806 16 16 0 1 1 5.225 31.133l.138-.139Zm0-29.955a13.813 13.813 0 0 0-13.431 10.882 13.812 13.812 0 0 0 7.702 15.476 13.816 13.816 0 0 0 16.778-4.156 13.817 13.817 0 0 0-.412-17.283 13.806 13.806 0 0 0-9.477-4.864l-1.16-.055Z" opacity=".7"/>
    </g>
  </g>
  <defs>
    <clipPath id="a">
      <path fill="#fff" d="M0 0h320v952H0z"/>
    </clipPath>
    <clipPath id="b">
      <path fill="#fff" d="M0 108h320v844H0z"/>
    </clipPath>
  </defs>
</svg>
