<svg xmlns="http://www.w3.org/2000/svg" width="280" height="210" fill="none">
  <g clip-path="url(#a)">
    <path fill="#F5F5F5" d="M140 210c59.966 0 108.579-2.856 108.579-6.38 0-3.523-48.613-6.38-108.579-6.38-59.966 0-108.578 2.857-108.578 6.38 0 3.524 48.612 6.38 108.578 6.38Z"/>
    <path fill="#407BFF" d="M76.888 159.079c.067-.507.326-.97.722-1.292.395-.322.899-.478 1.406-.438 4.794-.073 9.28 3.337 13.44 6.994.924.806 1.927 1.64 2.963.795.32-.267.554-.624.672-1.026a3.81 3.81 0 0 0 0-2.006 4.4 4.4 0 0 0-.756-1.494c-1.81-2.395-4.01-3.545-5.796-6.019-1-1.417-1.83-2.95-2.47-4.565-.56-1.42-1.68-3.714-1.232-5.636.498-2.299 2.206-2.102 3.242-1.786 3.277.986 6.334 3.336 9.112 6.261 2.962 3.111 5.645 6.859 8.316 10.584 1.008 1.415 2.072 2.869 3.36 3.382 1.288.513 2.917-.316 3.461-2.356.543-2.04-.096-4.385-.23-6.414a29.815 29.815 0 0 1 .347-7.247 9.923 9.923 0 0 1 1.249-3.585c1.445-2.13 3.584-1.381 4.984.231a14.837 14.837 0 0 1 2.442 4.509 52.185 52.185 0 0 1 2.8 14.005c.212 2.959.66 6.042 1.87 8.336 1.954 3.708 5.6 3.415 8.428 1.471 4.922-3.382 8.719-11.024 9.733-19.568.33-2.784.414-5.794 1.422-8.127.879-2.018 3.136-3.382 4.239-1.206a6.17 6.17 0 0 1 .359 3.438 24.544 24.544 0 0 1-.835 3.381c-.56 1.916-1.12 5.507.392 6.628a1.798 1.798 0 0 0 1.518.169c4.95-1.037 9.554-5.726 12.578-12.269a38.971 38.971 0 0 0 2.497-7.671c.364-1.612.515-3.342.919-4.942a9.034 9.034 0 0 1 1.534-3.489c1.926-2.322 6.373-1.229 6.625 3.748.151 2.88-.611 5.698-.891 8.516-.173 1.758.908 1.747 1.714 1.691 3.864-.395 7.28-4.318 10.31-8.398 3.6-4.853 7.588-11.153 12.504-11.339 1.12-.04 2.985.107 3.657 1.848a5.826 5.826 0 0 1 0 3.269c-.997 4.159-3.92 6.307-6.16 8.364a105.03 105.03 0 0 0-16.537 20.03c-.711 1.127-1.444 2.987-.767 4.091a1.222 1.222 0 0 0 1.26.564c2.313-.18 4.48-2.029 6.591-3.562 2.112-1.533 4.508-2.874 6.72-1.719a6.067 6.067 0 0 1 2.75 3.754c.395 1.362.459 2.8.185 4.193-.812 3.827-4.323 5.546-6.255 7.434a64.912 64.912 0 0 0-7.28 8.391c-2.016 2.779-3.92 5.822-5.936 8.55-7.28 9.767-17.36 11.216-26.32 12.348-9.75 1.229-19.522.564-29.216-.727-7.05-.946-14-2.964-20.882-5.359-2.363-.863-4.71-1.804-7.028-2.92-2.492-1.195-6.16-1.933-7.118-6.639-.201-1.014.034-1.837.7-2.215 2.067-1.183 5.012.4 6.956 1.443 2.682 1.443 5.224 3.5 7.98 4.61a3.626 3.626 0 0 0 2.867.152 2.132 2.132 0 0 0 1.058-.975 2.613 2.613 0 0 0 .202-1.854 2.228 2.228 0 0 0-.56-.885 53.288 53.288 0 0 0-17.428-11.959c-2.1-.908-4.244-1.651-6.266-2.936a14.144 14.144 0 0 1-4.144-3.946c-.94-1.516-2.453-4.193-1.977-6.611ZM183.999 117.65a2.464 2.464 0 0 1-2.95.47 2.491 2.491 0 0 1-1.084-1.15 2.517 2.517 0 0 1-.177-1.575c1.932-9.44 6.132-16.304 11.127-12.742 3.73 2.654-2.117 9.975-6.916 14.997Z" opacity=".1"/>
    <path fill="#407BFF" d="M170.447 122.057a10.59 10.59 0 0 0 3.77-3.54 10.68 10.68 0 0 0 1.656-4.914l3.786-46.411a17.263 17.263 0 0 0-.886-7.048 17.174 17.174 0 0 0-3.645-6.084l-11.664-12.574a6.863 6.863 0 0 1-1.798-5.207l.56-6.797-30.19-2.497-.56 6.797a6.836 6.836 0 0 1-2.615 4.841l-13.552 10.5a17.16 17.16 0 0 0-4.58 5.405 17.27 17.27 0 0 0-2.017 6.808l-3.791 46.412a10.695 10.695 0 0 0 .84 5.113 10.625 10.625 0 0 0 3.142 4.107 10.57 10.57 0 0 0-3.769 3.54 10.664 10.664 0 0 0-1.652 4.914l-4.833 59.177a10.696 10.696 0 0 0 2.478 7.755 10.56 10.56 0 0 0 7.199 3.725l49.84 4.12a10.512 10.512 0 0 0 7.707-2.488 10.639 10.639 0 0 0 2.566-3.252c.635-1.243 1.02-2.6 1.134-3.993l4.833-59.177a10.694 10.694 0 0 0-.827-5.117 10.639 10.639 0 0 0-3.132-4.115Z" opacity=".3"/>
    <path fill="#407BFF" d="m132.045 26.995-.428 5.24 30.183 2.498.428-5.24-30.183-2.498Z" opacity=".3"/>
    <path fill="#fff" d="m174.849 55.272-11.665-12.585s-7.521.326-1.68 9.609c4.979 7.85 13.653 6.628 13.345 2.976Z" opacity=".3"/>
    <path fill="#407BFF" d="M98.655 184.576a10.698 10.698 0 0 0 2.478 7.756 10.566 10.566 0 0 0 7.199 3.725l49.84 4.12a10.546 10.546 0 0 0 7.707-2.489 10.639 10.639 0 0 0 2.566-3.252c.635-1.243 1.02-2.6 1.134-3.993l-70.924-5.867Z" opacity=".2"/>
    <path fill="#407BFF" d="M172.67 56.36a13.807 13.807 0 0 1 2.926 4.885c.627 1.816.87 3.743.714 5.66l-3.785 46.416a7.31 7.31 0 0 1-1.135 3.349 7.24 7.24 0 0 1-2.572 2.411l-4.408 2.458 3.948 3.15a7.24 7.24 0 0 1 2.147 2.801 7.295 7.295 0 0 1 .575 3.489l-4.833 59.177a7.279 7.279 0 0 1-2.517 4.942 7.185 7.185 0 0 1-5.25 1.708l-49.84-4.119a7.234 7.234 0 0 1-4.929-2.531 7.295 7.295 0 0 1-1.707-5.298l4.833-59.177a7.282 7.282 0 0 1 1.131-3.351 7.234 7.234 0 0 1 2.57-2.414l4.408-2.458-3.92-3.15a7.249 7.249 0 0 1-2.147-2.801 7.295 7.295 0 0 1-.575-3.489l3.791-46.412c.157-1.916.71-3.778 1.624-5.466a13.79 13.79 0 0 1 3.679-4.34c4.48-2.914 16.24 4.34 30.011 5.478 13.77 1.138 22.383-2.378 25.261-.919Z" opacity=".3"/>
    <path fill="#407BFF" d="M147.38 57.283c-13.765-1.127-25.536-8.397-30.016-5.483 7.84 4.34 16.8 7.028 29.798 8.104 12.997 1.076 25.508-3.545 25.508-3.545-2.879-1.46-11.525 2.068-25.29.924ZM104.927 107.748a10.707 10.707 0 0 0 .84 5.113 10.625 10.625 0 0 0 3.142 4.107l61.538 5.072a10.59 10.59 0 0 0 3.77-3.54 10.682 10.682 0 0 0 1.657-4.914l-70.947-5.838Z" opacity=".2"/>
    <path fill="#407BFF" d="m162.859 21.18-30.099-2.498a2.294 2.294 0 0 0-2.47 2.108l-.6 7.37a2.303 2.303 0 0 0 2.096 2.487l30.098 2.498a2.293 2.293 0 0 0 2.47-2.108l.6-7.37a2.302 2.302 0 0 0-2.095-2.487Z"/>
    <path fill="#fff" d="M133.313 29.51a.276.276 0 0 1-.191-.099.278.278 0 0 1-.066-.206l.705-8.916a.283.283 0 0 1 .303-.259.28.28 0 0 1 .191.098.285.285 0 0 1 .066.206l-.728 8.91a.28.28 0 0 1-.28.266ZM138.773 29.96a.284.284 0 0 1-.245-.195.29.29 0 0 1-.012-.109l.728-8.91a.285.285 0 0 1 .302-.26.272.272 0 0 1 .242.196c.01.035.014.072.01.109l-.745 8.91a.287.287 0 0 1-.28.26ZM144.228 30.434a.274.274 0 0 1-.191-.098.278.278 0 0 1-.066-.206l.728-8.91a.292.292 0 0 1 .302-.26.28.28 0 0 1 .258.304l-.728 8.91a.282.282 0 0 1-.303.26ZM149.688 30.862a.276.276 0 0 1-.191-.098.278.278 0 0 1-.066-.206l.728-8.91a.285.285 0 0 1 .302-.26.274.274 0 0 1 .242.195c.01.036.014.073.01.11l-.728 8.91a.262.262 0 0 1-.028.106.267.267 0 0 1-.161.14.274.274 0 0 1-.108.013ZM155.12 31.313a.28.28 0 0 1-.258-.304l.728-8.91a.3.3 0 0 1 .303-.26.276.276 0 0 1 .191.099.294.294 0 0 1 .054.096.29.29 0 0 1 .012.11l-.728 8.91a.268.268 0 0 1-.096.195.274.274 0 0 1-.206.064ZM160.602 31.764a.28.28 0 0 1-.257-.304l.705-8.916a.287.287 0 0 1 .303-.26.28.28 0 0 1 .252.305l-.723 8.916a.287.287 0 0 1-.28.26Z" opacity=".2"/>
    <path fill="#407BFF" d="M114.24 92.243c-.851-4.74-7.711-4.401-8.103.395l-1.232 15.11a10.694 10.694 0 0 0 .839 5.113 10.625 10.625 0 0 0 3.142 4.107 10.575 10.575 0 0 0-3.768 3.54 10.665 10.665 0 0 0-1.653 4.914l-4.832 59.177a10.694 10.694 0 0 0 2.478 7.755 10.556 10.556 0 0 0 7.198 3.725l12.88 1.065a9.224 9.224 0 0 0 4.17-.622 9.282 9.282 0 0 0 3.468-2.412 9.382 9.382 0 0 0 2.263-7.944l-16.85-93.923Z" opacity=".2"/>
    <path fill="#407BFF" d="M163.799 169.731a5.522 5.522 0 0 1-1.169 2.976 5.473 5.473 0 0 1-2.615 1.82 5.446 5.446 0 0 1-3.178.052 5.473 5.473 0 0 1-2.672-1.734 5.54 5.54 0 0 1-.696-6.084 5.489 5.489 0 0 1 2.211-2.299 5.452 5.452 0 0 1 3.107-.677 5.474 5.474 0 0 1 3.729 1.93 5.541 5.541 0 0 1 1.283 4.016ZM146.39 148.388a3.919 3.919 0 0 1-.826 2.106 3.885 3.885 0 0 1-1.85 1.29 3.851 3.851 0 0 1-2.25.037 3.876 3.876 0 0 1-1.891-1.227 3.915 3.915 0 0 1 1.073-5.933 3.86 3.86 0 0 1 2.199-.477 3.875 3.875 0 0 1 2.636 1.365c.664.788.991 1.809.909 2.839ZM130.188 100.883a3.854 3.854 0 0 1-2.18-.555 3.913 3.913 0 0 1-1.832-3.92 3.907 3.907 0 0 1 .964-2.044 3.872 3.872 0 0 1 1.931-1.161 3.852 3.852 0 0 1 2.246.113c.721.26 1.349.73 1.805 1.35a3.92 3.92 0 0 1-.246 4.945 3.876 3.876 0 0 1-2.688 1.272ZM140.756 77.567a2.731 2.731 0 0 1-1.547-.389 2.76 2.76 0 0 1-1.304-2.776c.08-.54.318-1.045.683-1.45a2.739 2.739 0 0 1 2.961-.741c.511.185.956.518 1.278.958a2.776 2.776 0 0 1-.177 3.497 2.736 2.736 0 0 1-1.894.901ZM157.757 131.531a1.615 1.615 0 0 1-1.108 1.4 1.598 1.598 0 0 1-.929.015 1.609 1.609 0 0 1-1.15-1.365 1.61 1.61 0 0 1 .812-1.593 1.588 1.588 0 0 1 1.999.367c.275.327.41.749.376 1.176Z" opacity=".3"/>
    <path fill="#fff" d="M128.75 175.627h-.269a3.249 3.249 0 0 1-2.24-1.128 3.252 3.252 0 0 1-.756-2.378 3.28 3.28 0 0 1 .672-1.734 3.232 3.232 0 0 1 4.943-.207 3.278 3.278 0 0 1-.607 4.941 3.227 3.227 0 0 1-1.771.534l.028-.028Zm0-6.11a2.787 2.787 0 0 0-1.749.629 2.82 2.82 0 0 0-.974 1.591 2.835 2.835 0 0 0 .23 1.854 2.807 2.807 0 0 0 1.331 1.302 2.78 2.78 0 0 0 1.849.177 2.797 2.797 0 0 0 1.552-1.025 2.833 2.833 0 0 0-.083-3.525 2.807 2.807 0 0 0-1.921-.991l-.235-.012ZM163.386 109.675h-.196a2.355 2.355 0 0 1-1.602-.828 2.378 2.378 0 0 1 .271-3.34 2.347 2.347 0 0 1 3.32.273 2.382 2.382 0 0 1-.27 3.343c-.427.36-.966.556-1.523.552Zm-1.932-2.531a1.954 1.954 0 0 0 1.055 1.881 1.924 1.924 0 0 0 2.131-.252 1.937 1.937 0 0 0 .679-1.328 1.96 1.96 0 0 0-.455-1.422 1.906 1.906 0 0 0-1.344-.631 1.914 1.914 0 0 0-1.412.454 1.945 1.945 0 0 0-.677 1.327l.023-.029ZM127.204 59.707h-.084a1.118 1.118 0 0 1-.744-.392 1.131 1.131 0 0 1 .475-1.79 1.113 1.113 0 0 1 1.195.289 1.137 1.137 0 0 1 .212 1.218 1.117 1.117 0 0 1-1.026.68l-.028-.005Zm-.678-1.161a.68.68 0 0 0 .753.731.677.677 0 0 0 .574-.49.682.682 0 0 0-1.091-.71.687.687 0 0 0-.236.469ZM151.967 88.895h-.236a2.789 2.789 0 0 1-1.917-.988 2.824 2.824 0 0 1-.066-3.559 2.785 2.785 0 0 1 4.264-.167 2.831 2.831 0 0 1-.524 4.263c-.454.3-.984.46-1.527.463l.006-.012Zm0-5.241a2.358 2.358 0 0 0-1.54.564c-.484.411-.786.999-.84 1.634a2.41 2.41 0 0 0 1.954 2.561 2.379 2.379 0 0 0 2.145-.692 2.417 2.417 0 0 0 .112-3.227 2.373 2.373 0 0 0-1.63-.84h-.201Z" opacity=".7"/>
    <path fill="#fff" d="m174.938 113.536 3.617-44.26a2.16 2.16 0 0 0-1.965-2.327 2.13 2.13 0 0 0-2.084 1.163 2.163 2.163 0 0 0-.229.81l-3.618 44.259a8.955 8.955 0 0 1-1.392 4.129 8.904 8.904 0 0 1-3.172 2.972l-2.2 1.234 1.976 1.572a8.946 8.946 0 0 1 2.648 3.453 8.99 8.99 0 0 1 .712 4.303l-4.832 59.177c-.292 3.55-2.509 5.281-5.628 6.661a.989.989 0 0 0 .313 1.883 8.862 8.862 0 0 0 6.481-2.097 8.97 8.97 0 0 0 3.112-6.092l4.833-59.177a8.99 8.99 0 0 0-.711-4.303 8.914 8.914 0 0 0-2.649-3.452l-1.977-1.579 2.201-1.228a8.906 8.906 0 0 0 3.169-2.973 8.982 8.982 0 0 0 1.395-4.128Z" opacity=".3"/>
    <path fill="#407BFF" d="M233.067 182.316c-.605-2.761-8.154-1.127-9.716-.873a45.32 45.32 0 0 0-8.871 2.576c-3.152 1.245-6.815 3.077-10.08 1.183-1.887-1.093 4.665-3.252 5.259-3.472a47.75 47.75 0 0 0 8.03-3.708c1.036-.62 3.041-2.102 2.179-3.607-.717-1.246-3.288-1.127-4.85-.936a57.452 57.452 0 0 0-13.826 3.489 136.481 136.481 0 0 0-12.69 5.844 16.3 16.3 0 0 1-5.146 1.866c-1.972.282-4.385-.141-5.164-1.24-.778-1.099.224-2.384.454-3.489a5.967 5.967 0 0 0-.386-3.945 4.161 4.161 0 0 0-1.82-1.927c-2.134-1.127-5.36-.71-7.504.18a12.318 12.318 0 0 0-3.747 2.491 15.247 15.247 0 0 0-4.413 7.637 7.105 7.105 0 0 1-2.968 4.548c-3.001 2.035-8.5 1.916-12.706.896-7.342-1.753-12.942-5.85-14.291-10.477-.655-2.204-.975-4.509-3.92-5.371-1.904-.564-5.891-.169-5.04 2.254.309.664.712 1.28 1.198 1.826.779 1.032 1.607 2.976-.705 3.602a7.099 7.099 0 0 1-2.28.112c-7.436-.501-14.28-2.998-18.715-6.515a15.131 15.131 0 0 1-3.617-4.131c-.527-.873-.717-1.815-1.294-2.677a5.15 5.15 0 0 0-2.24-1.877c-2.856-1.234-9.565-.591-10.035 2.114-.252 1.465.655 3.054 1.12 4.447a.837.837 0 0 1 .056.563c-.135.355-.667.457-1.12.485-5.998.4-11.816-1.945-16.85-4.391-5.332-2.592-11.2-5.968-18.61-6.007a14.248 14.248 0 0 0-4.541.524c-.374.1-.722.281-1.02.529a1.319 1.319 0 0 0-.246 1.455c.24.496.599.926 1.042 1.251 2.24 1.837 5.376 2.581 8.238 3.528 8.49 2.769 16.7 6.346 24.516 10.68.79.445 2.19 1.476 1.081 2.254s-3.36.276-4.687.057c-2.408-.395-4.72-1.026-7.067-1.618-3.103-.789-6.72-1.505-10.08-.851-1.775.344-3.36 1.077-4.195 2.068a1.96 1.96 0 0 0-.358 2.255c1.154 2.068 6.412 2.959 9.285 3.945a93.283 93.283 0 0 1 10.769 4.469c2.984 1.488 5.756 3.117 8.78 4.577 10.803 5.213 25.889 5.884 39.38 6.391 14.644.563 29.355.084 43.96-.733 10.64-.597 21.084-1.775 31.511-3.162 2.996-.394 5.975-.879 8.96-1.29a55.82 55.82 0 0 0 8.96-1.787 7.542 7.542 0 0 0 2.884-1.454c.801-.75 1.053-1.73-.381-2.012-3.002-.603-6.093.085-9.027.62a173.62 173.62 0 0 0-9.789 2.102c-1.474.396-2.97.703-4.48.919a11.197 11.197 0 0 1-4.542-.293c-.481-.152-1.008-.423-1.036-.851-.028-.429.376-.699.79-.863 6.042-2.412 12.46-3.945 18.922-5.354 4.385-.958 8.848-1.544 13.267-2.294 4.026-.681 8.271-.839 11.76-3.409a4.046 4.046 0 0 0 1.545-1.877c.152-.397.189-.829.107-1.246ZM59.78 159.497c-1.64-4.695-7.487-13.008-8.72-8.099-.66 2.756 8.72 8.099 8.72 8.099ZM206.602 168.739c3.124-2.868 7.022-4.576 7.526-2.051.47 2.389-7.526 2.051-7.526 2.051ZM78.4 145.925c-2.139-1.127-3.807-2.936-2.553-3.691 1.254-.755 2.554 3.691 2.554 3.691Z" opacity=".3"/>
  </g>
  <defs>
    <clipPath id="a">
      <path fill="#fff" d="M0 0h280v210H0z"/>
    </clipPath>
  </defs>
</svg>
