<svg xmlns="http://www.w3.org/2000/svg" width="320" height="1328" fill="none">
  <g clip-path="url(#a)">
    <path fill="#C6D7FF" d="M302.481 49.486h-2.072a25.195 25.195 0 0 1-9.498-2.574 25.074 25.074 0 0 1-7.771-6.01 24.587 24.587 0 0 1-4.742-8.474 24.493 24.493 0 0 1-1.086-9.638 24.768 24.768 0 0 1 5.186-13.204 24.988 24.988 0 0 1 11.604-8.238 25.136 25.136 0 0 1 14.246-.59 25.02 25.02 0 0 1 12.253 7.249 24.789 24.789 0 0 1 6.273 12.73 24.716 24.716 0 0 1-1.748 14.068 24.89 24.89 0 0 1-9.201 10.83 25.102 25.102 0 0 1-13.659 4.066l.215-.215Zm0-46.525a21.663 21.663 0 0 0-13.48 4.785 21.443 21.443 0 0 0-7.506 12.116 21.346 21.346 0 0 0 1.769 14.121A21.529 21.529 0 0 0 293.53 43.9a21.703 21.703 0 0 0 14.249 1.352 21.598 21.598 0 0 0 11.967-7.808 21.378 21.378 0 0 0 4.422-13.533 21.381 21.381 0 0 0-5.065-13.309 21.572 21.572 0 0 0-6.643-5.253 21.68 21.68 0 0 0-8.165-2.3l-1.814-.087Z" opacity=".7"/>
    <path fill="#C6D7FF" d="M289.201 408.921a11.887 11.887 0 0 1-2.562 6.439 12.007 12.007 0 0 1-5.729 3.94 12.07 12.07 0 0 1-6.965.112 12.007 12.007 0 0 1-5.855-3.753 11.873 11.873 0 0 1-1.524-13.166 11.962 11.962 0 0 1 4.844-4.976 12.038 12.038 0 0 1 14.978 2.712 11.894 11.894 0 0 1 2.813 8.692Z"/>
    <path fill="#ECF2FF" d="M36.794 74.933a11.887 11.887 0 0 1-2.562 6.44 12.002 12.002 0 0 1-5.729 3.939 12.07 12.07 0 0 1-6.965.112 12.008 12.008 0 0 1-5.855-3.753 11.866 11.866 0 0 1-1.524-13.166 11.96 11.96 0 0 1 4.844-4.976 12.037 12.037 0 0 1 14.978 2.712 11.893 11.893 0 0 1 2.813 8.692ZM228.166 199.455a7.929 7.929 0 0 1-1.708 4.293 8.007 8.007 0 0 1-3.819 2.626 8.046 8.046 0 0 1-4.644.075 8.006 8.006 0 0 1-3.903-2.502 7.924 7.924 0 0 1-1.847-4.236 7.906 7.906 0 0 1 .831-4.541 7.98 7.98 0 0 1 3.229-3.318 8.027 8.027 0 0 1 9.986 1.808 7.93 7.93 0 0 1 1.875 5.795Z"/>
    <path fill="#C6D7FF" d="M52.96 642.392h-1.327a16.134 16.134 0 0 1-6.079-1.647 16.046 16.046 0 0 1-4.973-3.847 15.738 15.738 0 0 1-3.035-5.423 15.682 15.682 0 0 1-.695-6.168 15.85 15.85 0 0 1 3.319-8.451 15.993 15.993 0 0 1 7.426-5.272 16.08 16.08 0 0 1 9.118-.378 16.022 16.022 0 0 1 7.842 4.639 15.871 15.871 0 0 1 4.015 8.147 15.819 15.819 0 0 1-1.12 9.004 15.928 15.928 0 0 1-5.888 6.931 16.062 16.062 0 0 1-8.742 2.602l.138-.137Zm0-29.776a13.871 13.871 0 0 0-8.628 3.062 13.724 13.724 0 0 0-4.804 7.755 13.66 13.66 0 0 0 1.132 9.037 13.778 13.778 0 0 0 6.57 6.347 13.884 13.884 0 0 0 9.12.864 13.82 13.82 0 0 0 7.658-4.996 13.683 13.683 0 0 0 2.831-8.662 13.686 13.686 0 0 0-3.242-8.517 13.791 13.791 0 0 0-4.251-3.362 13.87 13.87 0 0 0-5.226-1.473l-1.16-.055Z" opacity=".7"/>
    <path fill="#C6D7FF" d="M310.591 913.084a11.88 11.88 0 0 1-2.562 6.439 12 12 0 0 1-5.729 3.939 12.062 12.062 0 0 1-6.965.113 12.007 12.007 0 0 1-5.855-3.753 11.893 11.893 0 0 1-2.77-6.353 11.862 11.862 0 0 1 1.246-6.813 11.962 11.962 0 0 1 4.844-4.976 12.04 12.04 0 0 1 14.979 2.712 11.894 11.894 0 0 1 2.812 8.692Z"/>
    <path fill="#9EBBFF" d="M19.2 1095.24h-1.576a19.121 19.121 0 0 1-13.124-6.53 18.553 18.553 0 0 1-3.604-6.44c-.76-2.36-1.041-4.85-.825-7.32a18.84 18.84 0 0 1 3.94-10.04 19.01 19.01 0 0 1 8.82-6.26 19.193 19.193 0 0 1 10.827-.45c3.576.9 6.812 2.82 9.313 5.51a18.86 18.86 0 0 1 4.767 9.68c.61 3.62.149 7.33-1.329 10.69a18.914 18.914 0 0 1-6.993 8.23 19.11 19.11 0 0 1-10.38 3.09l.163-.16Zm0-35.36a16.45 16.45 0 0 0-10.246 3.64 16.274 16.274 0 0 0-5.704 9.2 16.25 16.25 0 0 0 1.344 10.74 16.323 16.323 0 0 0 7.802 7.53 16.488 16.488 0 0 0 10.83 1.03c3.621-.89 6.83-2.99 9.094-5.93a16.259 16.259 0 0 0 3.361-10.29 16.22 16.22 0 0 0-3.85-10.11 16.477 16.477 0 0 0-5.048-4 16.602 16.602 0 0 0-6.206-1.75l-1.378-.06Z" opacity=".7"/>
    <path fill="#C6D7FF" d="M163.711 1297.45a12.878 12.878 0 0 1-2.776 6.98c-1.598 2-3.758 3.48-6.206 4.26a13.02 13.02 0 0 1-7.546.13 13.063 13.063 0 0 1-6.342-4.07 12.879 12.879 0 0 1-3.002-6.88 12.902 12.902 0 0 1 6.598-12.77 13.04 13.04 0 0 1 16.227 2.93c2.231 2.62 3.327 6 3.047 9.42Z"/>
    <path fill="#9EBBFF" d="M277.13 1262.66h-1.326a16.287 16.287 0 0 1-6.079-1.65 15.952 15.952 0 0 1-4.973-3.85 15.722 15.722 0 0 1-3.035-5.42 15.677 15.677 0 0 1-.695-6.17 15.847 15.847 0 0 1 3.319-8.45 15.944 15.944 0 0 1 7.426-5.27 16.003 16.003 0 0 1 9.118-.38c3.012.76 5.737 2.37 7.842 4.64 2.105 2.27 3.5 5.1 4.015 8.15.514 3.04.125 6.17-1.119 9a15.914 15.914 0 0 1-5.889 6.93 16.043 16.043 0 0 1-8.742 2.6l.138-.13Zm0-29.78c-3.142.02-6.185 1.1-8.627 3.06a13.726 13.726 0 0 0-4.804 7.76 13.642 13.642 0 0 0 1.132 9.03c1.4 2.8 3.718 5.04 6.57 6.35a13.905 13.905 0 0 0 9.119.87 13.888 13.888 0 0 0 7.659-5 13.676 13.676 0 0 0-.411-17.18 13.793 13.793 0 0 0-4.251-3.36 14.029 14.029 0 0 0-5.226-1.48l-1.161-.05Z" opacity=".7"/>
  </g>
  <defs>
    <clipPath id="a">
      <path fill="#fff" d="M0 0h320v1328H0z"/>
    </clipPath>
  </defs>
</svg>
