<svg xmlns="http://www.w3.org/2000/svg" width="1440" height="432" fill="none">
  <g clip-path="url(#a)">
    <path fill="#2F3875" fill-rule="evenodd" d="m0 144 50 6c50 6 150 18 250 60s200 114 300 150 200 36 300 42 200 18 250 24l50 6H0V144Z" clip-rule="evenodd"/>
    <path fill="#1F2438" fill-rule="evenodd" d="M1440 0h-40c-40 0-120 0-200 22-80 21-160 64-240 64s-160-43-240-7-160 151-240 209-160 58-240 43c-80-14-160-43-200-57L0 259v173h1440V0Z" clip-rule="evenodd" opacity=".8"/>
    <g clip-path="url(#b)">
      <path fill="#1B1B21" d="M1203 402c80.1 0 145.03-3.781 145.03-8.446 0-4.664-64.93-8.445-145.03-8.445s-145.03 3.781-145.03 8.445c0 4.665 64.93 8.446 145.03 8.446Z"/>
      <path fill="#5082F2" d="M1118.7 334.591a2.64 2.64 0 0 1 .96-1.711c.53-.426 1.2-.633 1.88-.58 6.41-.097 12.4 4.417 17.95 9.259 1.24 1.067 2.58 2.171 3.96 1.052.43-.353.74-.826.9-1.358.24-.869.24-1.786 0-2.656a5.893 5.893 0 0 0-1.01-1.977c-2.42-3.171-5.36-4.693-7.74-7.968a28.57 28.57 0 0 1-3.3-6.043c-.75-1.881-2.25-4.917-1.65-7.461.67-3.044 2.95-2.783 4.33-2.365 4.38 1.305 8.46 4.416 12.17 8.289 3.96 4.118 7.54 9.08 11.11 14.011 1.35 1.873 2.77 3.798 4.49 4.477 1.72.679 3.9-.418 4.62-3.119.73-2.701-.12-5.805-.3-8.49-.24-3.206-.09-6.428.46-9.595a12.97 12.97 0 0 1 1.67-4.745c1.93-2.82 4.78-1.828 6.65.306a19.542 19.542 0 0 1 3.27 5.968 69.08 69.08 0 0 1 3.74 18.541c.28 3.917.88 7.998 2.49 11.034 2.61 4.91 7.48 4.522 11.26 1.948 6.58-4.477 11.65-14.594 13-25.905.44-3.685.56-7.669 1.9-10.758 1.18-2.671 4.19-4.477 5.66-1.597.6 1.44.76 3.02.48 4.551a31.382 31.382 0 0 1-1.11 4.477c-.75 2.537-1.5 7.289.52 8.774a2.434 2.434 0 0 0 2.03.224c6.61-1.373 12.76-7.581 16.8-16.243a51.785 51.785 0 0 0 3.34-10.154c.48-2.134.68-4.424 1.22-6.543a12.076 12.076 0 0 1 2.05-4.618c2.57-3.074 8.51-1.627 8.85 4.961.2 3.813-.82 7.543-1.19 11.273-.23 2.328 1.21 2.313 2.29 2.239 5.16-.523 9.72-5.715 13.77-11.117 4.81-6.424 10.14-14.765 16.7-15.011 1.5-.053 3.99.141 4.89 2.447a7.765 7.765 0 0 1 0 4.327c-1.33 5.506-5.24 8.349-8.23 11.072a139.06 139.06 0 0 0-22.09 26.516c-.95 1.492-1.93 3.954-1.02 5.417.17.278.42.498.72.631s.64.173.96.115c3.09-.239 5.98-2.686 8.8-4.715 2.82-2.03 6.02-3.806 8.98-2.276.91.545 1.7 1.265 2.33 2.118a7.978 7.978 0 0 1 1.34 2.851c.53 1.804.61 3.708.25 5.551-1.09 5.066-5.78 7.341-8.36 9.841a86.73 86.73 0 0 0-9.72 11.109c-2.69 3.678-5.24 7.707-7.93 11.318-9.72 12.93-23.19 14.847-35.15 16.347-13.03 1.626-26.08.746-39.03-.963-9.42-1.253-18.7-3.924-27.89-7.095-3.16-1.141-6.29-2.387-9.39-3.865-3.33-1.581-8.23-2.559-9.51-8.788-.26-1.343.05-2.433.94-2.933 2.76-1.566 6.69.53 9.29 1.91 3.58 1.91 6.98 4.634 10.66 6.103.59.29 1.23.458 1.89.492.66.035 1.32-.064 1.94-.29.61-.254 1.1-.71 1.41-1.291.39-.757.49-1.631.27-2.455a2.917 2.917 0 0 0-.75-1.171 71.105 71.105 0 0 0-23.27-15.832c-2.81-1.201-5.67-2.186-8.37-3.887a18.744 18.744 0 0 1-5.54-5.223c-1.26-2.007-3.28-5.551-2.64-8.751ZM1261.77 279.746a3.317 3.317 0 0 1-5.39-.9 3.323 3.323 0 0 1-.23-2.085c2.58-12.497 8.19-21.584 14.86-16.869 4.98 3.514-2.83 13.206-9.24 19.854Z" opacity=".1"/>
      <path fill="#5082F2" d="M1243.67 285.581a14.056 14.056 0 0 0 5.03-4.687 14.028 14.028 0 0 0 2.22-6.505l5.05-61.44c.27-3.158-.14-6.337-1.18-9.33a22.663 22.663 0 0 0-4.87-8.054l-15.58-16.645a9.133 9.133 0 0 1-1.93-3.196 9.104 9.104 0 0 1-.47-3.698l.75-8.998-40.33-3.305-.74 8.998a9.15 9.15 0 0 1-1.07 3.572 9.132 9.132 0 0 1-2.43 2.837l-18.1 13.899a22.776 22.776 0 0 0-6.12 7.156 22.842 22.842 0 0 0-2.69 9.012l-5.07 61.44c-.19 2.315.2 4.64 1.13 6.77a14.059 14.059 0 0 0 4.19 5.436 14.044 14.044 0 0 0-5.03 4.686 14.136 14.136 0 0 0-2.21 6.506l-6.45 78.339c-.31 3.724.88 7.417 3.31 10.267a14.14 14.14 0 0 0 9.61 4.931l66.57 5.454a14.156 14.156 0 0 0 10.3-3.294 14.217 14.217 0 0 0 3.43-4.305 13.985 13.985 0 0 0 1.51-5.286l6.46-78.34c.19-2.314-.19-4.64-1.11-6.773a14.076 14.076 0 0 0-4.18-5.447Z" opacity=".3"/>
      <path fill="#5082F2" d="m1192.37 159.736-.57 6.938 40.32 3.306.57-6.937-40.32-3.307Z" opacity=".3"/>
      <path fill="#1C1D26" d="m1249.55 197.169-15.58-16.66s-10.05.433-2.25 12.721c6.65 10.393 18.24 8.774 17.83 3.939Z" opacity=".3"/>
      <path fill="#5082F2" d="M1147.78 368.344c-.31 3.724.88 7.417 3.31 10.267a14.14 14.14 0 0 0 9.61 4.931l66.57 5.454c1.85.152 3.71-.061 5.48-.626a14.25 14.25 0 0 0 4.82-2.668 14.035 14.035 0 0 0 3.42-4.305 13.998 13.998 0 0 0 1.52-5.286l-94.73-7.767Z" opacity=".2"/>
      <path fill="#5082F2" d="M1246.64 198.609a18.312 18.312 0 0 1 3.91 6.468c.83 2.403 1.16 4.955.95 7.491l-5.06 61.448a9.623 9.623 0 0 1-1.51 4.433 9.704 9.704 0 0 1-3.44 3.192l-5.88 3.253 5.27 4.171a9.643 9.643 0 0 1 2.87 3.707c.63 1.453.89 3.04.76 4.619l-6.45 78.339a9.634 9.634 0 0 1-3.36 6.542 9.675 9.675 0 0 1-7.02 2.262l-66.57-5.454a9.67 9.67 0 0 1-6.58-3.35 9.492 9.492 0 0 1-1.84-3.28 9.64 9.64 0 0 1-.44-3.733l6.45-78.339c.13-1.58.65-3.104 1.51-4.436a9.718 9.718 0 0 1 3.44-3.197l5.88-3.253-5.23-4.17a9.647 9.647 0 0 1-2.87-3.708 9.629 9.629 0 0 1-.77-4.619l5.07-61.44c.21-2.536.95-5.001 2.17-7.237a18.178 18.178 0 0 1 4.91-5.745c5.98-3.857 21.69 5.745 40.09 7.252 18.39 1.507 29.89-3.148 33.74-1.216Z" opacity=".3"/>
      <path fill="#5082F2" d="M1212.86 199.832c-18.39-1.492-34.11-11.116-40.09-7.259 10.47 5.745 22.44 9.304 39.8 10.729 17.36 1.425 34.07-4.693 34.07-4.693-3.85-1.932-15.4 2.738-33.78 1.223ZM1156.15 266.637c-.19 2.314.2 4.64 1.12 6.77a14.083 14.083 0 0 0 4.2 5.436l82.2 6.715a14.044 14.044 0 0 0 5.03-4.686 14.031 14.031 0 0 0 2.22-6.505l-94.77-7.73Z" opacity=".2"/>
      <path fill="#5082F2" d="m1233.53 152.039-40.2-3.307a3.06 3.06 0 0 0-3.3 2.791l-.8 9.755a3.052 3.052 0 0 0 2.8 3.293l40.2 3.307a3.054 3.054 0 0 0 3.3-2.791l.8-9.756a3.051 3.051 0 0 0-2.8-3.292Z"/>
      <path fill="#1C1D26" d="M1194.07 163.065a.34.34 0 0 1-.14-.039.319.319 0 0 1-.12-.091.537.537 0 0 1-.07-.127.713.713 0 0 1-.02-.146l.95-11.803c.01-.099.05-.19.13-.255a.36.36 0 0 1 .27-.088c.1.008.19.055.26.13.06.076.09.174.09.273l-.98 11.796c0 .095-.04.184-.11.249a.395.395 0 0 1-.26.101ZM1201.36 163.662a.355.355 0 0 1-.25-.13.345.345 0 0 1-.08-.128.353.353 0 0 1-.01-.145l.97-11.795a.407.407 0 0 1 .13-.254.4.4 0 0 1 .27-.09c.05.004.1.018.14.04.05.022.09.053.12.091.03.037.05.081.07.128a.35.35 0 0 1 .01.144l-.99 11.796a.393.393 0 0 1-.13.243.347.347 0 0 1-.25.1ZM1208.65 164.289a.34.34 0 0 1-.14-.04.317.317 0 0 1-.12-.09.329.329 0 0 1-.07-.128c-.02-.047-.02-.096-.02-.145l.98-11.796a.359.359 0 0 1 .13-.251.385.385 0 0 1 .27-.092c.05.004.1.017.14.039.04.023.08.054.12.091.03.037.05.081.07.128.01.047.02.096.01.145l-.97 11.796c0 .049-.02.096-.04.14a.375.375 0 0 1-.36.203ZM1215.94 164.856a.34.34 0 0 1-.14-.04.626.626 0 0 1-.12-.09.525.525 0 0 1-.07-.128c-.01-.047-.02-.096-.01-.145l.97-11.796a.404.404 0 0 1 .13-.253.385.385 0 0 1 .27-.09c.05.004.1.017.14.04.05.022.08.053.12.091.03.037.05.081.07.128.01.046.01.096.01.144l-.97 11.796a.645.645 0 0 1-.04.14.375.375 0 0 1-.36.203ZM1223.2 165.453a.44.44 0 0 1-.15-.04.379.379 0 0 1-.18-.218c-.02-.047-.02-.096-.02-.145l.97-11.796a.466.466 0 0 1 .14-.249.39.39 0 0 1 .27-.094c.05.004.1.017.14.04.04.022.08.053.11.09.04.038.06.081.08.128.01.047.02.096.01.145l-.97 11.796a.36.36 0 0 1-.04.142.311.311 0 0 1-.09.115.345.345 0 0 1-.13.071.319.319 0 0 1-.14.015ZM1230.52 166.05a.34.34 0 0 1-.14-.04.317.317 0 0 1-.12-.09.544.544 0 0 1-.07-.128.703.703 0 0 1-.02-.145l.95-11.803a.36.36 0 0 1 .13-.253.36.36 0 0 1 .52.042c.06.075.1.173.09.27l-.97 11.804a.375.375 0 0 1-.12.242.385.385 0 0 1-.25.101Z" opacity=".2"/>
      <path fill="#5082F2" d="M1168.59 246.112c-1.14-6.274-10.3-5.827-10.82.523l-1.65 20.002c-.19 2.314.2 4.64 1.12 6.77a14.083 14.083 0 0 0 4.2 5.436 14.044 14.044 0 0 0-5.03 4.686 14.018 14.018 0 0 0-2.21 6.506l-6.46 78.339c-.3 3.724.89 7.417 3.31 10.267a14.183 14.183 0 0 0 9.62 4.931l17.2 1.41c1.9.155 3.81-.127 5.57-.824a12.446 12.446 0 0 0 4.64-3.194 12.54 12.54 0 0 0 2.74-4.907c.52-1.823.62-3.742.28-5.609l-22.51-124.336Z" opacity=".2"/>
      <path fill="#5082F2" d="M1234.79 348.692a7.292 7.292 0 0 1-5.05 6.349 7.343 7.343 0 0 1-7.82-2.227 7.295 7.295 0 0 1-1.69-3.887c-.16-1.433.1-2.883.76-4.167a7.316 7.316 0 0 1 7.11-3.939 7.347 7.347 0 0 1 4.98 2.554 7.299 7.299 0 0 1 1.71 5.317ZM1211.53 320.438a5.095 5.095 0 0 1-1.1 2.788c-.64.8-1.5 1.394-2.47 1.707-.98.312-2.02.329-3.01.049a5.165 5.165 0 0 1-2.52-1.624 5.206 5.206 0 0 1-1.2-2.751 5.192 5.192 0 0 1 .54-2.949 5.214 5.214 0 0 1 2.09-2.154 5.187 5.187 0 0 1 6.46 1.175 5.146 5.146 0 0 1 1.21 3.759ZM1189.89 257.55a5.201 5.201 0 0 1-2.91-.735 5.234 5.234 0 0 1-2.01-2.224 5.136 5.136 0 0 1-.44-2.965 5.285 5.285 0 0 1 1.29-2.706 5.185 5.185 0 0 1 7.99.399c.61.82.96 1.802 1.01 2.822.04.678-.06 1.356-.29 1.995a5.145 5.145 0 0 1-1.05 1.729c-.45.503-1.01.91-1.62 1.199a5.25 5.25 0 0 1-1.97.486ZM1204.01 226.684a3.697 3.697 0 0 1-2.07-.514 3.676 3.676 0 0 1-1.43-1.574 3.622 3.622 0 0 1-.31-2.101c.11-.716.43-1.384.91-1.92a3.7 3.7 0 0 1 1.83-1.09 3.689 3.689 0 0 1 2.13.108c.68.245 1.27.687 1.71 1.269.43.583.67 1.279.71 2.002a3.66 3.66 0 0 1-3.48 3.82ZM1226.72 298.122c-.04.42-.2.82-.46 1.15a2.136 2.136 0 0 1-2.26.723c-.41-.116-.77-.35-1.05-.672a2.137 2.137 0 0 1-.27-2.353c.2-.376.5-.685.87-.891a2.138 2.138 0 0 1 2.67.487c.36.432.54.991.5 1.556Z" opacity=".3"/>
      <path fill="#1C1D26" d="M1187.97 356.496h-.36a4.32 4.32 0 0 1-1.64-.447 4.333 4.333 0 0 1-1.35-1.045 4.211 4.211 0 0 1-.82-1.473 4.322 4.322 0 0 1 .71-3.971 4.377 4.377 0 0 1 2.01-1.432 4.341 4.341 0 0 1 5.68 3.371c.14.827.03 1.677-.3 2.445a4.312 4.312 0 0 1-1.6 1.883c-.7.459-1.52.705-2.36.706l.03-.037Zm0-8.087c-.85.004-1.67.297-2.33.831a3.729 3.729 0 0 0-1.3 2.107c-.18.829-.08 1.695.3 2.454a3.75 3.75 0 0 0 4.25 1.959 3.699 3.699 0 0 0 2.07-1.357 3.71 3.71 0 0 0-.11-4.666 3.75 3.75 0 0 0-2.56-1.314l-.32-.014ZM1234.24 269.189h-.27a3.153 3.153 0 0 1-2.14-1.096 3.164 3.164 0 0 1-.74-2.284c.07-.83.47-1.599 1.11-2.137a3.15 3.15 0 0 1 4.43.361c.54.634.81 1.455.74 2.284a3.19 3.19 0 0 1-1.1 2.141c-.57.477-1.29.736-2.03.731Zm-2.58-3.35a2.553 2.553 0 0 0 1.41 2.49c.45.23.96.321 1.47.262s.98-.267 1.37-.596c.26-.219.48-.487.63-.789a2.54 2.54 0 0 0 .16-1.971c-.1-.323-.27-.622-.49-.881a2.554 2.554 0 0 0-1.79-.835c-.34-.029-.68.009-1.01.113a2.61 2.61 0 0 0-1.51 1.276c-.15.302-.25.631-.27.968l.03-.037ZM1185.91 203.04h-.11a1.5 1.5 0 0 1-1-.519 1.47 1.47 0 0 1-.35-1.062c.02-.29.12-.569.3-.801.17-.232.41-.408.69-.507.27-.098.57-.114.85-.046.29.068.54.217.74.429.2.212.34.478.39.765.05.286.01.581-.1.848-.12.267-.31.494-.55.655-.25.16-.53.245-.82.246l-.04-.008Zm-.91-1.536c-.01.177.03.355.11.511a.923.923 0 0 0 .9.457.912.912 0 0 0 .77-.648 1.03 1.03 0 0 0-.01-.523.911.911 0 0 0-1.45-.417.848.848 0 0 0-.22.278.825.825 0 0 0-.1.342ZM1218.98 241.681h-.31a3.753 3.753 0 0 1-2.56-1.309 3.722 3.722 0 0 1 1.65-5.939 3.753 3.753 0 0 1 3.96 1.008c.49.532.81 1.195.93 1.909.12.713.03 1.446-.26 2.108a3.769 3.769 0 0 1-1.37 1.625c-.61.397-1.32.61-2.04.612v-.014Zm0-6.939a3.147 3.147 0 0 0-2.05.746 3.161 3.161 0 0 0-1.12 2.164c-.05.521.04 1.045.25 1.525s.53.902.94 1.227c.42.325.9.544 1.42.638.51.094 1.04.059 1.54-.1.5-.16.96-.44 1.32-.816.37-.375.63-.835.78-1.338.14-.503.16-1.034.05-1.546a3.166 3.166 0 0 0-2.86-2.5h-.27Z" opacity=".7"/>
      <path fill="#1C1D26" d="m1249.67 274.3 4.83-58.591c.03-.374-.01-.751-.13-1.108a2.814 2.814 0 0 0-1.42-1.668 2.892 2.892 0 0 0-2.19-.18c-.36.114-.69.298-.97.54-.29.243-.53.54-.7.874-.17.334-.28.698-.31 1.072l-4.83 58.59a11.643 11.643 0 0 1-1.86 5.467 11.823 11.823 0 0 1-4.23 3.934l-2.94 1.634 2.64 2.082a11.791 11.791 0 0 1 3.53 4.57c.79 1.792 1.11 3.748.96 5.696l-6.46 78.339c-.39 4.701-3.35 6.991-7.52 8.819-.26.118-.48.32-.62.575a1.33 1.33 0 0 0-.13.832c.04.285.19.546.4.743.21.196.48.316.77.342 3.14.256 6.25-.742 8.66-2.775 2.4-2.033 3.9-4.934 4.15-8.066l6.46-78.339c.16-1.948-.17-3.905-.95-5.696-.78-1.792-2-3.362-3.54-4.57l-2.64-2.089 2.94-1.627a11.77 11.77 0 0 0 4.23-3.935 11.764 11.764 0 0 0 1.87-5.465Z" opacity=".3"/>
      <path fill="#5082F2" d="M1327.31 365.352c-.81-3.656-10.89-1.492-12.98-1.156a61.314 61.314 0 0 0-11.85 3.409c-4.21 1.649-9.1 4.074-13.46 1.567-2.52-1.447 6.23-4.305 7.02-4.596a64.152 64.152 0 0 0 10.73-4.909c1.38-.821 4.06-2.783 2.91-4.775-.96-1.649-4.39-1.492-6.48-1.239a77.435 77.435 0 0 0-18.47 4.619 184.445 184.445 0 0 0-16.95 7.737 21.835 21.835 0 0 1-6.87 2.469c-2.63.373-5.86-.186-6.9-1.641s.3-3.156.61-4.618a7.842 7.842 0 0 0-.52-5.223 5.513 5.513 0 0 0-2.43-2.552c-2.85-1.492-7.16-.94-10.02.239a16.373 16.373 0 0 0-5 3.298 20.101 20.101 0 0 0-5.9 10.109 9.356 9.356 0 0 1-1.38 3.404 9.453 9.453 0 0 1-2.58 2.617c-4.01 2.694-11.36 2.537-16.98 1.186-9.8-2.32-17.28-7.744-19.08-13.869-.88-2.918-1.31-5.969-5.24-7.111-2.54-.746-7.87-.223-6.73 2.985.41.879.95 1.693 1.6 2.417 1.04 1.365 2.14 3.939-.94 4.768-1 .211-2.03.262-3.05.149-9.93-.664-19.07-3.969-25-8.625a20.075 20.075 0 0 1-4.83-5.469c-.7-1.156-.96-2.402-1.73-3.544a6.81 6.81 0 0 0-2.99-2.484c-3.81-1.634-12.77-.784-13.4 2.798-.34 1.94.87 4.043 1.49 5.886.11.233.14.497.08.746-.18.47-.89.605-1.5.642-8.01.53-15.78-2.574-22.51-5.812-7.12-3.432-14.96-7.901-24.85-7.953-2.05-.093-4.1.141-6.07.694-.5.132-.96.372-1.36.701-.24.251-.4.569-.46.912-.06.343-.01.696.13 1.013.32.657.8 1.226 1.39 1.656 2.99 2.432 7.18 3.417 11.01 4.671 11.34 3.666 22.3 8.4 32.74 14.138 1.06.589 2.93 1.955 1.45 2.984-1.48 1.03-4.49.366-6.26.075-3.22-.522-6.31-1.358-9.44-2.141-4.15-1.045-8.98-1.992-13.47-1.127-2.37.455-4.49 1.425-5.6 2.738-.38.384-.64.88-.72 1.415-.09.536 0 1.085.24 1.57 1.54 2.738 8.57 3.917 12.4 5.222 4.92 1.673 9.72 3.649 14.39 5.917 3.98 1.969 7.69 4.126 11.73 6.058 14.42 6.901 34.58 7.789 52.6 8.461 19.56.746 39.21.112 58.71-.97 14.22-.791 28.17-2.351 42.09-4.186 4-.522 7.98-1.164 11.97-1.708a75.1 75.1 0 0 0 11.97-2.366 10.092 10.092 0 0 0 3.85-1.924c1.07-.993 1.41-2.291-.51-2.664-4.01-.798-8.14.112-12.06.821-4.39.806-8.75 1.733-13.07 2.783-1.97.523-3.97.93-5.98 1.216-2.03.284-4.1.152-6.07-.388-.64-.202-1.35-.56-1.38-1.127-.04-.567.5-.925 1.05-1.141 8.07-3.194 16.64-5.223 25.28-7.088 5.85-1.269 11.81-2.044 17.72-3.037 5.37-.903 11.04-1.111 15.7-4.514a5.384 5.384 0 0 0 2.07-2.484c.2-.525.25-1.097.14-1.649ZM1095.85 335.143c-2.19-6.215-10-17.22-11.65-10.721-.88 3.648 11.65 10.721 11.65 10.721ZM1291.96 347.378c4.17-3.797 9.38-6.057 10.05-2.715.63 3.163-10.05 2.715-10.05 2.715ZM1120.72 317.177c-2.86-1.492-5.09-3.887-3.41-4.887 1.67-.999 3.41 4.887 3.41 4.887Z" opacity=".3"/>
    </g>
  </g>
  <defs>
    <clipPath id="a">
      <path fill="#fff" d="M0 0h1440v432H0z"/>
    </clipPath>
    <clipPath id="b">
      <path fill="#fff" d="M1016 124h374v278h-374z"/>
    </clipPath>
  </defs>
</svg>
