<svg xmlns="http://www.w3.org/2000/svg" width="738" height="548" fill="none">
  <g clip-path="url(#a)">
    <path fill="#1B1B21" d="M369 548c158.054 0 286.182-7.454 286.182-16.648 0-9.195-128.128-16.649-286.182-16.649-158.054 0-286.182 7.454-286.182 16.649C82.818 540.546 210.946 548 369 548Z"/>
    <path fill="#5082F2" d="M202.654 415.122a5.22 5.22 0 0 1 1.902-3.372 5.25 5.25 0 0 1 3.707-1.143c12.635-.192 24.458 8.706 35.424 18.251 2.436 2.103 5.078 4.28 7.808 2.074a5.489 5.489 0 0 0 1.772-2.677 9.858 9.858 0 0 0 0-5.236 11.43 11.43 0 0 0-1.993-3.897c-4.768-6.25-10.568-9.251-15.277-15.707a57.024 57.024 0 0 1-6.509-11.913c-1.476-3.706-4.428-9.692-3.247-14.707 1.314-6 5.815-5.486 8.546-4.662 8.635 2.574 16.694 8.707 24.015 16.34 7.808 8.118 14.878 17.898 21.918 27.619 2.657 3.692 5.461 7.486 8.856 8.825 3.395 1.338 7.69-.824 9.122-6.148 1.432-5.324-.251-11.442-.605-16.737a77.01 77.01 0 0 1 .915-18.913 25.711 25.711 0 0 1 3.291-9.354c3.808-5.559 9.447-3.603 13.137.603a38.616 38.616 0 0 1 6.435 11.766 134.874 134.874 0 0 1 7.38 36.547c.561 7.721 1.742 15.766 4.93 21.752 5.151 9.677 14.76 8.912 22.214 3.838 12.974-8.824 22.981-28.767 25.653-51.062.87-7.266 1.092-15.119 3.749-21.208 2.317-5.265 8.265-8.824 11.173-3.147a15.963 15.963 0 0 1 .945 8.971 63.334 63.334 0 0 1-2.2 8.824c-1.476 5.001-2.952 14.369 1.033 17.296a4.79 4.79 0 0 0 4 .441c13.048-2.706 25.181-14.942 33.151-32.017a100.84 100.84 0 0 0 6.583-20.017c.96-4.206 1.358-8.721 2.421-12.898a23.489 23.489 0 0 1 4.044-9.103c5.078-6.06 16.797-3.207 17.461 9.78.399 7.515-1.609 14.869-2.347 22.222-.457 4.589 2.392 4.559 4.517 4.412 10.184-1.029 19.188-11.265 27.173-21.913 9.491-12.663 20-29.106 32.959-29.591 2.952-.103 7.867.28 9.639 4.824.82 2.785.82 5.746 0 8.53-2.628 10.854-10.332 16.457-16.236 21.825a274.74 274.74 0 0 0-43.587 52.269c-1.874 2.942-3.808 7.795-2.022 10.678a3.241 3.241 0 0 0 3.321 1.47c6.096-.47 11.808-5.294 17.373-9.295 5.564-4 11.881-7.5 17.712-4.485a15.846 15.846 0 0 1 4.607 4.175 15.783 15.783 0 0 1 2.64 5.62 22.977 22.977 0 0 1 .487 10.942c-2.14 9.986-11.395 14.472-16.487 19.398a170.244 170.244 0 0 0-19.188 21.899c-5.314 7.251-10.332 15.193-15.646 22.311-19.188 25.487-45.756 29.267-69.372 32.223-25.697 3.206-51.453 1.471-77.003-1.897-18.582-2.471-36.9-7.736-55.04-13.987-6.228-2.25-12.413-4.706-18.523-7.618-6.569-3.118-16.236-5.044-18.76-17.325-.532-2.647.088-4.794 1.845-5.78 5.446-3.088 13.21 1.045 18.332 3.765 7.07 3.765 13.771 9.133 21.033 12.031a9.65 9.65 0 0 0 7.557.397 5.6 5.6 0 0 0 2.789-2.545 6.757 6.757 0 0 0 .532-4.838 5.787 5.787 0 0 0-1.476-2.309 140.487 140.487 0 0 0-45.933-31.209c-5.535-2.367-11.188-4.309-16.517-7.662a37.08 37.08 0 0 1-10.922-10.295c-2.48-3.956-6.465-10.942-5.211-17.251ZM484.969 307.01a6.554 6.554 0 0 1-10.632-1.774 6.49 6.49 0 0 1-.468-4.109c5.092-24.634 16.162-42.548 29.328-33.253 9.831 6.927-5.579 26.032-18.228 39.136Z" opacity=".1"/>
    <path fill="#5082F2" d="M449.25 318.511a27.812 27.812 0 0 0 9.936-9.238 27.674 27.674 0 0 0 4.366-12.823l9.978-121.112a44.63 44.63 0 0 0-2.334-18.392 44.751 44.751 0 0 0-9.607-15.876l-30.745-32.811a17.827 17.827 0 0 1-4.738-13.59l1.476-17.736-79.571-6.516-1.476 17.737a17.737 17.737 0 0 1-2.109 7.041 17.816 17.816 0 0 1-4.784 5.593l-35.719 27.399a44.894 44.894 0 0 0-12.071 14.106 44.73 44.73 0 0 0-5.316 17.764l-9.993 121.113a27.661 27.661 0 0 0 2.214 13.344 27.762 27.762 0 0 0 8.281 10.716 27.776 27.776 0 0 0-9.933 9.237 27.637 27.637 0 0 0-4.355 12.824l-12.738 154.424a27.732 27.732 0 0 0 6.531 20.238 27.937 27.937 0 0 0 18.974 9.721l131.364 10.75a27.933 27.933 0 0 0 20.314-6.493 27.786 27.786 0 0 0 6.764-8.486 27.686 27.686 0 0 0 2.988-10.42l12.738-154.424a27.655 27.655 0 0 0-2.18-13.351 27.745 27.745 0 0 0-8.255-10.739Z" opacity=".3"/>
    <path fill="#5082F2" d="m348.034 70.445-1.129 13.675 79.554 6.517 1.128-13.675-79.553-6.517Z" opacity=".3"/>
    <path fill="#1C1D26" d="m460.852 144.232-30.745-32.841s-19.823.853-4.428 25.076c13.122 20.487 35.985 17.295 35.173 7.765Z" opacity=".3"/>
    <path fill="#5082F2" d="M260.028 481.656a27.732 27.732 0 0 0 6.531 20.238 27.927 27.927 0 0 0 18.974 9.721l131.364 10.751c3.648.3 7.32-.119 10.805-1.233a27.886 27.886 0 0 0 9.509-5.261 27.768 27.768 0 0 0 6.763-8.486 27.683 27.683 0 0 0 2.989-10.419l-186.935-15.311Z" opacity=".2"/>
    <path fill="#5082F2" d="M455.11 147.071a36.008 36.008 0 0 1 7.712 12.749 35.916 35.916 0 0 1 1.882 14.768l-9.978 121.127a18.899 18.899 0 0 1-2.992 8.737 18.993 18.993 0 0 1-6.779 6.294l-11.616 6.412 10.406 8.221a18.941 18.941 0 0 1 5.657 7.308 18.868 18.868 0 0 1 1.516 9.105L438.18 496.216a18.932 18.932 0 0 1-6.634 12.896 19.07 19.07 0 0 1-13.838 4.459L286.344 502.82a19.116 19.116 0 0 1-7.155-2.015 19.039 19.039 0 0 1-5.836-4.59 18.973 18.973 0 0 1-3.63-6.466 18.914 18.914 0 0 1-.869-7.357l12.737-154.424a18.908 18.908 0 0 1 2.981-8.745 18.98 18.98 0 0 1 6.776-6.301l11.616-6.412-10.332-8.221a18.94 18.94 0 0 1-5.657-7.308 18.856 18.856 0 0 1-1.516-9.105l9.992-121.113c.414-5 1.872-9.858 4.279-14.265a36.08 36.08 0 0 1 9.699-11.325c11.808-7.604 42.804 11.324 79.099 14.295 36.294 2.971 58.995-6.206 66.582-2.397Z" opacity=".3"/>
    <path fill="#5082F2" d="M388.453 149.483c-36.28-2.942-67.305-21.914-79.113-14.31 20.664 11.324 44.28 18.339 78.538 21.148 34.258 2.809 67.232-9.25 67.232-9.25-7.587-3.809-30.376 5.397-66.657 2.412ZM276.558 281.17a27.661 27.661 0 0 0 2.214 13.344 27.762 27.762 0 0 0 8.281 10.716l162.197 13.237a27.82 27.82 0 0 0 9.936-9.238 27.687 27.687 0 0 0 4.367-12.823L276.558 281.17Z" opacity=".2"/>
    <path fill="#5082F2" d="m429.251 55.271-79.331-6.519c-3.323-.273-6.237 2.19-6.51 5.5l-1.582 19.232c-.272 3.311 2.201 6.217 5.524 6.49l79.331 6.519c3.323.273 6.237-2.19 6.51-5.501l1.581-19.231c.273-3.311-2.2-6.217-5.523-6.49Z"/>
    <path fill="#1C1D26" d="M351.377 77.006a.746.746 0 0 1-.505-.256.724.724 0 0 1-.174-.538l1.86-23.267a.741.741 0 0 1 1.476.118l-1.919 23.252a.734.734 0 0 1-.738.691ZM365.767 78.183a.74.74 0 0 1-.679-.794l1.919-23.252a.753.753 0 0 1 .797-.677.724.724 0 0 1 .637.51c.028.092.038.189.028.284l-1.964 23.252a.748.748 0 0 1-.738.677ZM380.144 79.418a.74.74 0 0 1-.679-.794l1.919-23.252a.763.763 0 0 1 .797-.676.744.744 0 0 1 .506.256.723.723 0 0 1 .173.538l-1.919 23.252a.728.728 0 0 1-.257.503.741.741 0 0 1-.54.173ZM394.535 80.536a.734.734 0 0 1-.646-.508.73.73 0 0 1-.033-.286l1.919-23.252a.749.749 0 0 1 1.073-.599.71.71 0 0 1 .361.432c.028.092.037.189.027.285l-1.919 23.252a.712.712 0 0 1-.497.643.73.73 0 0 1-.285.033ZM408.852 81.713a.74.74 0 0 1-.679-.795l1.919-23.252a.782.782 0 0 1 .797-.676.744.744 0 0 1 .506.256.738.738 0 0 1 .173.538l-1.919 23.252a.707.707 0 0 1-.253.508.72.72 0 0 1-.544.169ZM423.303 82.89a.746.746 0 0 1-.506-.257.73.73 0 0 1-.173-.538l1.859-23.267a.75.75 0 0 1 .797-.676.737.737 0 0 1 .665.794l-1.904 23.267a.75.75 0 0 1-.738.676Z" opacity=".2"/>
    <path fill="#5082F2" d="M301.104 240.711c-2.243-12.369-20.324-11.487-21.357 1.029l-3.248 39.43a27.675 27.675 0 0 0 2.214 13.344 27.762 27.762 0 0 0 8.281 10.716 27.767 27.767 0 0 0-9.933 9.237 27.645 27.645 0 0 0-4.355 12.824l-12.738 154.424a27.732 27.732 0 0 0 6.531 20.238 27.937 27.937 0 0 0 18.974 9.721l33.948 2.779c3.74.305 7.501-.25 10.991-1.624a24.477 24.477 0 0 0 9.139-6.296 24.372 24.372 0 0 0 5.406-9.672 24.308 24.308 0 0 0 .56-11.057l-44.413-245.093Z" opacity=".2"/>
    <path fill="#5082F2" d="M431.73 442.918a14.351 14.351 0 0 1-3.082 7.764 14.435 14.435 0 0 1-6.891 4.751 14.495 14.495 0 0 1-8.379.135 14.433 14.433 0 0 1-7.042-4.525 14.354 14.354 0 0 1-3.333-7.661 14.334 14.334 0 0 1 1.5-8.215 14.407 14.407 0 0 1 5.826-6.001 14.48 14.48 0 0 1 8.191-1.764 14.47 14.47 0 0 1 9.827 5.035 14.369 14.369 0 0 1 3.383 10.481ZM385.841 387.222a10.15 10.15 0 0 1-2.178 5.497 10.21 10.21 0 0 1-4.876 3.364 10.244 10.244 0 0 1-10.914-3.104 10.148 10.148 0 0 1-1.297-11.236 10.2 10.2 0 0 1 4.125-4.246 10.25 10.25 0 0 1 5.797-1.246 10.246 10.246 0 0 1 6.947 3.562 10.167 10.167 0 0 1 2.396 7.409ZM343.141 263.257a10.25 10.25 0 0 1-5.746-1.449 10.198 10.198 0 0 1-3.971-4.385 10.146 10.146 0 0 1 1.684-11.178 10.224 10.224 0 0 1 5.088-3.03 10.247 10.247 0 0 1 5.919.296 10.212 10.212 0 0 1 4.759 3.521 10.145 10.145 0 0 1-.65 12.904 10.216 10.216 0 0 1-7.083 3.321ZM370.993 202.413a7.244 7.244 0 0 1-4.077-1.014 7.22 7.22 0 0 1-2.822-3.102 7.183 7.183 0 0 1 1.184-7.926 7.248 7.248 0 0 1 11.173.566 7.198 7.198 0 0 1 1.406 3.946 7.194 7.194 0 0 1-1.871 5.178 7.245 7.245 0 0 1-4.993 2.352ZM415.804 343.233a4.197 4.197 0 0 1-.904 2.268 4.222 4.222 0 0 1-2.016 1.386 4.221 4.221 0 0 1-4.506-1.286 4.191 4.191 0 0 1-.537-4.64 4.23 4.23 0 0 1 4.096-2.272 4.242 4.242 0 0 1 2.875 1.476 4.21 4.21 0 0 1 .992 3.068Z" opacity=".3"/>
    <path fill="#1C1D26" d="M339.348 458.302h-.709a8.583 8.583 0 0 1-5.904-2.942 8.427 8.427 0 0 1-1.992-6.206 8.489 8.489 0 0 1 1.773-4.525 8.55 8.55 0 0 1 3.967-2.823 8.58 8.58 0 0 1 4.871-.202 8.553 8.553 0 0 1 4.189 2.484 8.498 8.498 0 0 1-1.599 12.894 8.574 8.574 0 0 1-4.67 1.393l.074-.073Zm0-15.943a7.4 7.4 0 0 0-4.609 1.64 7.347 7.347 0 0 0-2.566 4.152 7.325 7.325 0 0 0 .605 4.838 7.367 7.367 0 0 0 3.509 3.398 7.4 7.4 0 0 0 8.963-2.212 7.332 7.332 0 0 0-2.491-10.998 7.403 7.403 0 0 0-2.791-.788l-.62-.03ZM430.638 286.2h-.517a6.225 6.225 0 0 1-4.223-2.161 6.177 6.177 0 0 1-1.459-4.502 6.179 6.179 0 0 1 2.174-4.213 6.228 6.228 0 0 1 8.75.712 6.176 6.176 0 0 1 1.459 4.501 6.257 6.257 0 0 1-2.169 4.221 6.203 6.203 0 0 1-4.015 1.442Zm-5.092-6.604a5.07 5.07 0 0 0 .646 2.873 5.095 5.095 0 0 0 2.134 2.035 5.125 5.125 0 0 0 5.618-.658 5.073 5.073 0 0 0 1.788-3.466 5.071 5.071 0 0 0-1.198-3.711 5.046 5.046 0 0 0-3.542-1.647 5.1 5.1 0 0 0-4.96 2.739 5.044 5.044 0 0 0-.545 1.909l.059-.074ZM335.274 155.806h-.221a2.956 2.956 0 0 1-1.962-1.023 2.936 2.936 0 0 1 1.254-4.672 2.967 2.967 0 0 1 3.149.756 2.928 2.928 0 0 1 .558 3.178 2.953 2.953 0 0 1-2.704 1.776l-.074-.015Zm-1.786-3.029a1.774 1.774 0 0 0 .966 1.724 1.797 1.797 0 0 0 1.969-.226 1.777 1.777 0 0 0-1.001-3.131 1.773 1.773 0 0 0-1.934 1.633ZM400.542 231.975h-.62a7.389 7.389 0 0 1-5.055-2.579 7.335 7.335 0 0 1-1.72-5.393 7.343 7.343 0 0 1 1.547-3.894 7.4 7.4 0 0 1 11.238-.435 7.336 7.336 0 0 1-1.38 11.122 7.404 7.404 0 0 1-4.025 1.208l.015-.029Zm0-13.678a6.252 6.252 0 0 0-4.059 1.471 6.282 6.282 0 0 0-2.214 4.265 6.271 6.271 0 0 0 2.366 5.425 6.314 6.314 0 0 0 5.84 1.06 6.281 6.281 0 0 0 4.133-4.245 6.263 6.263 0 0 0-1.24-5.785 6.246 6.246 0 0 0-4.295-2.191h-.531Z" opacity=".7"/>
    <path fill="#1C1D26" d="m461.088 296.274 9.535-115.495a5.633 5.633 0 0 0-3.057-5.472 5.675 5.675 0 0 0-2.124-.602 5.669 5.669 0 0 0-4.121 1.312 5.606 5.606 0 0 0-1.975 3.836l-9.535 115.494a23.214 23.214 0 0 1-3.671 10.776 23.327 23.327 0 0 1-8.358 7.755l-5.801 3.221 5.21 4.103a23.369 23.369 0 0 1 6.98 9.01 23.273 23.273 0 0 1 1.876 11.227L433.31 495.864c-.768 9.265-6.613 13.78-14.834 17.383a2.58 2.58 0 0 0-1.221 1.134 2.572 2.572 0 0 0 2.047 3.778 23.505 23.505 0 0 0 17.081-5.47 23.339 23.339 0 0 0 8.203-15.899l12.738-154.424a23.255 23.255 0 0 0-1.873-11.229 23.329 23.329 0 0 0-6.983-9.008l-5.21-4.118 5.801-3.206a23.38 23.38 0 0 0 8.353-7.758 23.273 23.273 0 0 0 3.676-10.773Z" opacity=".3"/>
    <path fill="#5082F2" d="M614.296 475.759c-1.594-7.207-21.49-2.941-25.609-2.28a120.605 120.605 0 0 0-23.379 6.721c-8.31 3.251-17.963 8.03-26.568 3.089-4.974-2.853 12.295-8.486 13.859-9.06a126.406 126.406 0 0 0 21.166-9.677c2.731-1.618 8.015-5.486 5.742-9.412-1.89-3.251-8.664-2.942-12.782-2.442a152.603 152.603 0 0 0-36.443 9.104 361.153 361.153 0 0 0-33.446 15.251 43.222 43.222 0 0 1-13.564 4.868c-5.196.736-11.557-.367-13.609-3.235-2.052-2.868.59-6.221 1.195-9.104a15.421 15.421 0 0 0-1.018-10.295 10.888 10.888 0 0 0-4.797-5.03c-5.624-2.941-14.125-1.853-19.778.471a32.482 32.482 0 0 0-9.875 6.5 39.685 39.685 0 0 0-11.631 19.928 18.504 18.504 0 0 1-2.725 6.711 18.57 18.57 0 0 1-5.098 5.158c-7.911 5.309-22.405 5-33.49 2.338-19.35-4.573-34.11-15.265-37.668-27.34-1.726-5.75-2.568-11.766-10.332-14.016-5.018-1.471-15.527-.441-13.284 5.883a19.677 19.677 0 0 0 3.159 4.765c2.052 2.691 4.236 7.765-1.86 9.398a18.935 18.935 0 0 1-6.007.294c-19.601-1.309-37.638-7.824-49.328-17.001a39.638 39.638 0 0 1-9.535-10.781c-1.387-2.279-1.889-4.735-3.409-6.985a13.542 13.542 0 0 0-5.904-4.898c-7.528-3.221-25.21-1.544-26.45 5.515-.665 3.824 1.727 7.971 2.952 11.604.22.458.272.978.147 1.471-.354.926-1.756 1.191-2.952 1.265-15.808 1.044-31.143-5.074-44.413-11.457-14.051-6.765-29.52-15.575-49.047-15.678a37.968 37.968 0 0 0-11.97 1.368 7.06 7.06 0 0 0-2.687 1.382 3.42 3.42 0 0 0-.649 3.795 8.838 8.838 0 0 0 2.745 3.265c5.904 4.794 14.17 6.736 21.712 9.206a371.73 371.73 0 0 1 64.619 27.87c2.082 1.162 5.772 3.853 2.849 5.883-2.922 2.03-8.856.721-12.354.147-6.347-1.029-12.443-2.677-18.627-4.221-8.177-2.059-17.712-3.927-26.568-2.221-4.679.898-8.856 2.809-11.055 5.398a5.07 5.07 0 0 0-.945 5.883c3.041 5.397 16.9 7.721 24.472 10.295a247.526 247.526 0 0 1 28.384 11.662c7.867 3.883 15.173 8.133 23.143 11.943 28.472 13.604 68.236 15.354 103.793 16.677 38.597 1.471 77.372.221 115.866-1.912 28.044-1.559 55.571-4.632 83.054-8.25 7.897-1.03 15.749-2.295 23.616-3.368a148.48 148.48 0 0 0 23.616-4.662 19.978 19.978 0 0 0 7.601-3.795c2.111-1.956 2.775-4.515-1.003-5.25-7.912-1.574-16.059.22-23.793 1.618a461.954 461.954 0 0 0-25.801 5.485 101.343 101.343 0 0 1-11.808 2.398 29.79 29.79 0 0 1-11.97-.765c-1.269-.397-2.657-1.103-2.731-2.221-.074-1.118.989-1.824 2.081-2.25 15.926-6.295 32.841-10.295 49.874-13.972 11.557-2.5 23.321-4.03 34.967-5.986 10.612-1.779 21.8-2.191 30.996-8.897a10.591 10.591 0 0 0 4.074-4.898 5.862 5.862 0 0 0 .28-3.25ZM157.562 416.21c-4.324-12.251-19.734-33.944-22.981-21.134-1.742 7.192 22.981 21.134 22.981 21.134ZM544.54 440.329c8.236-7.485 18.509-11.941 19.837-5.353 1.24 6.235-19.837 5.353-19.837 5.353ZM206.64 380.795c-5.639-2.942-10.037-7.662-6.731-9.633 3.306-1.97 6.731 9.633 6.731 9.633Z" opacity=".3"/>
  </g>
  <defs>
    <clipPath id="a">
      <path fill="#fff" d="M0 0h738v548H0z"/>
    </clipPath>
  </defs>
</svg>
