<svg xmlns="http://www.w3.org/2000/svg" width="768" height="680" fill="none">
  <g clip-path="url(#a)">
    <path fill="#272E59" d="M7.954 554.149a13.999 13.999 0 0 1-17.8 12.312 13.998 13.998 0 0 1-2.956-25.697 14 14 0 0 1 7.943-1.717 14.011 14.011 0 0 1 12.813 15.102Z"/>
    <path fill="#1F2438" d="M11.97 244.739a9.001 9.001 0 1 1-8.236-9.709 9.01 9.01 0 0 1 8.236 9.709Z"/>
    <path fill="#2F3875" d="M27.157 398.87h-1.243a15.048 15.048 0 0 1-10.361-5.181 14.872 14.872 0 0 1-3.497-10.933 15.001 15.001 0 0 1 18.621-13.299 15.004 15.004 0 0 1 11.116 12.06 15.003 15.003 0 0 1-6.57 15.028A14.994 14.994 0 0 1 27.029 399l.13-.13Zm0-28.082a12.95 12.95 0 0 0-11.53 18.725 12.952 12.952 0 1 0 21.503-14.114 12.962 12.962 0 0 0-8.885-4.56l-1.088-.051Z" opacity=".7"/>
    <path fill="#1F2438" d="M377.954 231.149a14.003 14.003 0 0 1-9.673 12.181 14.003 14.003 0 0 1-18.189-11.73 13.995 13.995 0 0 1 7.106-13.836 13.998 13.998 0 0 1 7.943-1.717 14.01 14.01 0 0 1 12.813 15.102Z"/>
    <path fill="#272E59" d="M588.262 139.784h-2.072a25.084 25.084 0 0 1-17.269-8.636 24.789 24.789 0 0 1-5.828-18.221 24.997 24.997 0 1 1 47.814 12.088A25.005 25.005 0 0 1 588.046 140l.216-.216Zm0-46.805a21.582 21.582 0 0 0-20.986 17.003 21.591 21.591 0 0 0 12.035 24.182 21.58 21.58 0 0 0 26.215-6.495 21.589 21.589 0 0 0-.643-27.004 21.576 21.576 0 0 0-14.808-7.6l-1.813-.086Z" opacity=".7"/>
    <path fill="#272E59" d="M612.954 350.149a14.003 14.003 0 0 1-9.673 12.181 14.003 14.003 0 0 1-18.189-11.73 13.995 13.995 0 0 1 7.106-13.836 13.998 13.998 0 0 1 7.943-1.717 14.01 14.01 0 0 1 12.813 15.102Z"/>
    <path fill="#2F3875" d="M762.231 274.81h-1.824a22.068 22.068 0 0 1-15.196-7.599 21.8 21.8 0 0 1-5.129-16.035 21.999 21.999 0 0 1 27.312-19.505 22.004 22.004 0 0 1 14.764 30.142A22.004 22.004 0 0 1 762.041 275l.19-.19Zm0-41.188a18.991 18.991 0 0 0-18.468 14.962 19 19 0 0 0 10.59 21.28 18.99 18.99 0 0 0 23.07-5.715 19 19 0 0 0-.566-23.764 18.984 18.984 0 0 0-13.031-6.687l-1.595-.076Z" opacity=".7"/>
    <g clip-path="url(#b)">
      <path fill="#1B1B21" d="M480 664c157.625 0 285.406-7.454 285.406-16.648 0-9.195-127.781-16.649-285.406-16.649-157.626 0-285.406 7.454-285.406 16.649C194.594 656.546 322.374 664 480 664Z"/>
      <path fill="#5082F2" d="M314.106 531.122a5.22 5.22 0 0 1 5.594-4.515c12.6-.192 24.391 8.706 35.328 18.251 2.428 2.103 5.063 4.28 7.786 2.074a5.487 5.487 0 0 0 1.767-2.677 9.878 9.878 0 0 0 0-5.236 11.434 11.434 0 0 0-1.987-3.897c-4.755-6.25-10.54-9.251-15.236-15.707a57.044 57.044 0 0 1-6.491-11.913c-1.472-3.706-4.416-9.692-3.238-14.707 1.31-6 5.799-5.486 8.522-4.662 8.612 2.574 16.649 8.707 23.95 16.339 7.787 8.119 14.838 17.899 21.859 27.62 2.65 3.692 5.446 7.486 8.832 8.825 3.386 1.338 7.669-.824 9.097-6.148s-.25-11.442-.603-16.737a77.206 77.206 0 0 1 .912-18.913 25.753 25.753 0 0 1 3.283-9.354c3.797-5.559 9.421-3.603 13.101.603a38.652 38.652 0 0 1 6.417 11.766 135.15 135.15 0 0 1 7.36 36.547c.56 7.721 1.737 15.766 4.917 21.752 5.137 9.677 14.72 8.912 22.154 3.838 12.938-8.824 22.919-28.767 25.583-51.063.868-7.265 1.089-15.118 3.739-21.207 2.311-5.265 8.243-8.824 11.143-3.147a15.998 15.998 0 0 1 .942 8.971 63.735 63.735 0 0 1-2.193 8.824c-1.472 5.001-2.944 14.369 1.03 17.296a4.762 4.762 0 0 0 3.989.441c13.013-2.706 25.112-14.943 33.061-32.017a100.981 100.981 0 0 0 6.565-20.017c.957-4.206 1.355-8.721 2.414-12.898a23.54 23.54 0 0 1 4.034-9.104c5.063-6.059 16.751-3.206 17.413 9.781.398 7.515-1.604 14.869-2.34 22.222-.456 4.589 2.385 4.559 4.504 4.412 10.157-1.029 19.136-11.265 27.1-21.913 9.465-12.663 19.945-29.106 32.87-29.591 2.944-.103 7.845.279 9.612 4.824a15.132 15.132 0 0 1 0 8.53c-2.62 10.854-10.304 16.457-16.192 21.825a274.535 274.535 0 0 0-43.468 52.269c-1.87 2.942-3.798 7.795-2.017 10.678a3.226 3.226 0 0 0 3.312 1.47c6.079-.47 11.776-5.294 17.325-9.295 5.55-4 11.85-7.5 17.664-4.485a15.802 15.802 0 0 1 7.228 9.795 23.04 23.04 0 0 1 .486 10.942c-2.135 9.986-11.364 14.471-16.443 19.398a170.007 170.007 0 0 0-19.136 21.899c-5.299 7.251-10.304 15.193-15.603 22.311-19.136 25.487-45.632 29.267-69.184 32.223-25.627 3.206-51.314 1.471-76.794-1.897-18.532-2.471-36.8-7.736-54.891-13.987-6.212-2.25-12.379-4.706-18.473-7.618-6.551-3.118-16.193-5.044-18.71-17.325-.53-2.647.089-4.794 1.84-5.78 5.432-3.088 13.175 1.044 18.283 3.765 7.05 3.765 13.733 9.133 20.976 12.031a9.608 9.608 0 0 0 7.536.397 5.59 5.59 0 0 0 2.782-2.545 6.772 6.772 0 0 0 .53-4.838 5.767 5.767 0 0 0-1.472-2.309 140.084 140.084 0 0 0-45.808-31.209c-5.52-2.367-11.158-4.309-16.472-7.662a37.037 37.037 0 0 1-10.893-10.295c-2.473-3.956-6.447-10.942-5.196-17.251ZM595.655 423.01a6.527 6.527 0 0 1-7.754 1.227 6.527 6.527 0 0 1-2.849-3.001 6.504 6.504 0 0 1-.466-4.109c5.078-24.634 16.118-42.548 29.248-33.253 9.804 6.927-5.564 26.032-18.179 39.136Z" opacity=".1"/>
      <path fill="#5082F2" d="M560.033 434.511a27.765 27.765 0 0 0 9.909-9.238 27.74 27.74 0 0 0 4.355-12.823l9.95-121.112a44.76 44.76 0 0 0-11.908-34.268l-30.662-32.811a17.86 17.86 0 0 1-4.725-13.59l1.472-17.736-79.356-6.516-1.472 17.737a17.79 17.79 0 0 1-6.874 12.634L415.1 244.187a44.832 44.832 0 0 0-17.34 31.87l-9.966 121.113a27.73 27.73 0 0 0 10.466 24.06 27.697 27.697 0 0 0-14.249 22.061l-12.703 154.424a27.779 27.779 0 0 0 6.513 20.238 27.835 27.835 0 0 0 18.923 9.721l131.008 10.75a27.8 27.8 0 0 0 27.004-14.979 27.75 27.75 0 0 0 2.981-10.42l12.703-154.424a27.734 27.734 0 0 0-10.407-24.09Z" opacity=".3"/>
      <path fill="#5082F2" d="m459.091 186.444-1.125 13.676 79.338 6.517 1.125-13.676-79.338-6.517Z" opacity=".3"/>
      <path fill="#1C1D26" d="m571.603 260.232-30.662-32.841s-19.769.853-4.416 25.076c13.086 20.487 35.888 17.295 35.078 7.765Z" opacity=".3"/>
      <path fill="#5082F2" d="M371.322 597.656a27.784 27.784 0 0 0 6.514 20.238 27.825 27.825 0 0 0 18.923 9.721l131.008 10.751a27.814 27.814 0 0 0 20.258-6.494 27.759 27.759 0 0 0 9.726-18.906l-186.429-15.31Z" opacity=".2"/>
      <path fill="#5082F2" d="M565.877 263.071a36.028 36.028 0 0 1 9.568 27.517l-9.951 121.127a18.965 18.965 0 0 1-9.745 15.031l-11.584 6.412 10.377 8.221a18.923 18.923 0 0 1 7.154 16.413l-12.703 154.424a18.95 18.95 0 0 1-6.617 12.896 18.983 18.983 0 0 1-13.8 4.459L397.568 618.82a18.998 18.998 0 0 1-16.576-13.071 18.97 18.97 0 0 1-.867-7.357l12.703-154.424a18.948 18.948 0 0 1 9.73-15.046l11.585-6.412-10.304-8.221a18.912 18.912 0 0 1-7.154-16.413l9.965-121.113a36.043 36.043 0 0 1 13.94-25.59c11.776-7.604 42.688 11.324 78.885 14.295 36.196 2.971 58.835-6.206 66.402-2.397Z" opacity=".3"/>
      <path fill="#5082F2" d="M499.401 265.483c-36.182-2.942-67.123-21.914-78.899-14.31 20.608 11.324 44.16 18.339 78.325 21.148 34.165 2.809 67.05-9.25 67.05-9.25-7.566-3.809-30.294 5.397-66.476 2.412ZM387.809 397.17a27.73 27.73 0 0 0 10.466 24.06l161.758 13.237a27.774 27.774 0 0 0 9.909-9.238 27.74 27.74 0 0 0 4.355-12.823L387.809 397.17Z" opacity=".2"/>
      <path fill="#5082F2" d="m540.088 171.271-79.116-6.519a6.015 6.015 0 0 0-6.492 5.501l-1.578 19.231a6.022 6.022 0 0 0 5.509 6.49l79.116 6.518a6.014 6.014 0 0 0 6.492-5.5l1.577-19.231a6.02 6.02 0 0 0-5.508-6.49Z"/>
      <path fill="#1C1D26" d="M462.425 193.006a.732.732 0 0 1-.677-.794l1.854-23.267a.735.735 0 0 1 .258-.502.735.735 0 0 1 1.04.083c.127.149.19.342.174.537l-1.913 23.252a.734.734 0 0 1-.736.691ZM476.776 194.183a.746.746 0 0 1-.504-.257.73.73 0 0 1-.173-.537l1.914-23.252a.751.751 0 0 1 .795-.677.73.73 0 0 1 .499.257.718.718 0 0 1 .163.537l-1.958 23.252a.749.749 0 0 1-.736.677ZM491.114 195.418a.73.73 0 0 1-.677-.794l1.914-23.252a.764.764 0 0 1 .795-.676.726.726 0 0 1 .504.256.752.752 0 0 1 .173.538l-1.914 23.252a.727.727 0 0 1-.256.503.727.727 0 0 1-.539.173ZM505.466 196.536a.75.75 0 0 1-.504-.256.727.727 0 0 1-.173-.538l1.913-23.252a.748.748 0 0 1 1.071-.599.72.72 0 0 1 .359.431c.028.093.038.19.028.285l-1.914 23.252a.726.726 0 0 1-.496.644.72.72 0 0 1-.284.033ZM519.744 197.712a.721.721 0 0 1-.504-.256.735.735 0 0 1-.173-.538l1.914-23.252a.783.783 0 0 1 .794-.676.727.727 0 0 1 .504.256.747.747 0 0 1 .174.538l-1.914 23.252a.719.719 0 0 1-.795.676ZM534.155 198.889a.727.727 0 0 1-.504-.256.744.744 0 0 1-.173-.538l1.855-23.267a.75.75 0 0 1 .795-.676.733.733 0 0 1 .662.794l-1.899 23.266a.749.749 0 0 1-.736.677Z" opacity=".2"/>
      <path fill="#5082F2" d="M412.288 356.711c-2.237-12.369-20.269-11.487-21.299 1.029l-3.239 39.43a27.73 27.73 0 0 0 10.466 24.06 27.697 27.697 0 0 0-14.249 22.061l-12.703 154.424a27.779 27.779 0 0 0 6.513 20.238 27.835 27.835 0 0 0 18.923 9.721l33.856 2.779a24.43 24.43 0 0 0 20.075-7.92 24.391 24.391 0 0 0 5.95-20.729l-44.293-245.093Z" opacity=".2"/>
      <path fill="#5082F2" d="M542.56 558.918a14.396 14.396 0 0 1-18.302 12.65 14.395 14.395 0 0 1-7.023-4.525 14.372 14.372 0 0 1-1.829-15.876 14.395 14.395 0 0 1 23.78-2.73 14.388 14.388 0 0 1 3.374 10.481ZM496.796 503.222a10.173 10.173 0 0 1-7.035 8.861 10.193 10.193 0 0 1-10.885-3.104 10.176 10.176 0 0 1 8.602-16.728 10.208 10.208 0 0 1 6.928 3.562 10.189 10.189 0 0 1 2.39 7.409ZM454.211 379.256a10.18 10.18 0 0 1-10.547-11.676 10.173 10.173 0 0 1 7.609-8.365 10.188 10.188 0 0 1 12.638 9.379 10.181 10.181 0 0 1-2.636 7.342 10.195 10.195 0 0 1-7.064 3.32ZM481.987 318.413a7.219 7.219 0 0 1-6.881-4.116 7.208 7.208 0 0 1 4.779-10.074 7.215 7.215 0 0 1 7.546 2.714 7.202 7.202 0 0 1-.465 9.124 7.215 7.215 0 0 1-4.979 2.352ZM526.678 459.233a4.21 4.21 0 1 1-7.941-2.272 4.209 4.209 0 0 1 4.084-2.272 4.226 4.226 0 0 1 3.857 4.544Z" opacity=".3"/>
      <path fill="#1C1D26" d="M450.428 574.302h-.707a8.555 8.555 0 0 1-5.888-2.942 8.434 8.434 0 0 1-1.987-6.206 8.515 8.515 0 0 1 5.725-7.348 8.532 8.532 0 0 1 9.035 2.282 8.51 8.51 0 0 1-1.594 12.894 8.534 8.534 0 0 1-4.658 1.393l.074-.073Zm0-15.943a7.36 7.36 0 0 0-7.156 5.792 7.356 7.356 0 0 0 8.962 8.699 7.361 7.361 0 0 0 4.08-2.675 7.346 7.346 0 0 0-5.268-11.786l-.618-.03ZM541.472 402.2h-.516a6.2 6.2 0 0 1-4.211-2.161 6.188 6.188 0 0 1-1.456-4.502 6.188 6.188 0 0 1 2.168-4.213 6.2 6.2 0 0 1 8.727.712 6.19 6.19 0 0 1 1.455 4.501 6.263 6.263 0 0 1-2.164 4.221 6.171 6.171 0 0 1-4.003 1.442Zm-5.079-6.604a5.085 5.085 0 0 0 2.773 4.908 5.099 5.099 0 0 0 7.386-4.124 5.075 5.075 0 0 0-1.194-3.711 5.045 5.045 0 0 0-3.533-1.647 5.077 5.077 0 0 0-5.491 4.648l.059-.074ZM446.365 271.806h-.221a2.944 2.944 0 0 1-2.65-3.117 2.947 2.947 0 0 1 3.627-2.669 2.945 2.945 0 0 1 2.211 2.353 2.932 2.932 0 0 1-1.28 2.962 2.94 2.94 0 0 1-1.614.486l-.073-.015Zm-1.781-3.029a1.781 1.781 0 1 0 1.928-1.633 1.765 1.765 0 0 0-1.928 1.633ZM511.457 347.975h-.618a7.365 7.365 0 0 1-6.439-5.104 7.35 7.35 0 0 1 1.225-6.762 7.369 7.369 0 0 1 7.61-2.584 7.353 7.353 0 0 1 4.924 10.069 7.355 7.355 0 0 1-6.716 4.41l.014-.029Zm0-13.678a6.229 6.229 0 0 0-4.048 1.471 6.291 6.291 0 0 0-2.208 4.265 6.278 6.278 0 0 0 5.139 6.683 6.289 6.289 0 0 0 7.167-4.443 6.27 6.27 0 0 0-1.236-5.785 6.243 6.243 0 0 0-1.921-1.526 6.239 6.239 0 0 0-2.363-.665h-.53Z" opacity=".7"/>
      <path fill="#1C1D26" d="m571.838 412.274 9.51-115.495a5.637 5.637 0 0 0-5.167-6.074 5.638 5.638 0 0 0-4.11 1.312 5.631 5.631 0 0 0-1.97 3.836l-9.509 115.494a23.291 23.291 0 0 1-11.996 18.531l-5.785 3.221 5.196 4.103a23.341 23.341 0 0 1 8.832 20.237l-12.704 154.424c-.765 9.266-6.594 13.781-14.793 17.384a2.572 2.572 0 0 0 .824 4.912 23.4 23.4 0 0 0 17.035-5.47 23.361 23.361 0 0 0 8.18-15.899l12.704-154.424a23.311 23.311 0 0 0-8.832-20.237l-5.196-4.118 5.785-3.206a23.345 23.345 0 0 0 8.33-7.758 23.305 23.305 0 0 0 3.666-10.773Z" opacity=".3"/>
      <path fill="#5082F2" d="M724.632 591.759c-1.59-7.207-21.433-2.941-25.54-2.28a120.047 120.047 0 0 0-23.316 6.721c-8.287 3.251-17.914 8.03-26.496 3.089-4.961-2.853 12.262-8.486 13.822-9.06a125.918 125.918 0 0 0 21.109-9.677c2.723-1.618 7.992-5.486 5.726-9.412-1.885-3.251-8.641-2.942-12.748-2.442a151.873 151.873 0 0 0-36.344 9.104 359.648 359.648 0 0 0-33.355 15.251 43.03 43.03 0 0 1-13.528 4.868c-5.181.736-11.526-.367-13.572-3.235-2.046-2.868.589-6.221 1.193-9.104a15.463 15.463 0 0 0-1.016-10.295 10.876 10.876 0 0 0-4.784-5.03c-5.608-2.941-14.087-1.853-19.725.471a32.39 32.39 0 0 0-9.847 6.5 39.704 39.704 0 0 0-11.6 19.928 18.544 18.544 0 0 1-7.801 11.869c-7.89 5.309-22.345 5-33.4 2.338-19.298-4.573-34.018-15.265-37.566-27.34-1.722-5.75-2.561-11.766-10.304-14.016-5.004-1.471-15.485-.441-13.248 5.883a19.675 19.675 0 0 0 3.151 4.765c2.046 2.691 4.224 7.765-1.855 9.398a18.837 18.837 0 0 1-5.991.294c-19.548-1.309-37.536-7.824-49.194-17.001a39.597 39.597 0 0 1-9.51-10.781c-1.383-2.279-1.884-4.735-3.4-6.985a13.51 13.51 0 0 0-5.888-4.898c-7.507-3.221-25.142-1.544-26.378 5.515-.663 3.824 1.722 7.971 2.944 11.604.219.458.271.978.147 1.471-.353.926-1.752 1.191-2.944 1.265-15.765 1.044-31.059-5.074-44.292-11.457-14.014-6.765-29.44-15.575-48.915-15.678a37.773 37.773 0 0 0-11.938 1.368 7.042 7.042 0 0 0-2.679 1.382 3.423 3.423 0 0 0-.648 3.795 8.83 8.83 0 0 0 2.738 3.265c5.888 4.794 14.131 6.736 21.653 9.206a370.212 370.212 0 0 1 64.445 27.87c2.075 1.162 5.755 3.853 2.841 5.883-2.915 2.03-8.832.721-12.321.147-6.33-1.029-12.409-2.677-18.577-4.221-8.155-2.059-17.664-3.927-26.496-2.221-4.666.898-8.832 2.809-11.025 5.398a5.084 5.084 0 0 0-.942 5.883c3.032 5.397 16.854 7.721 24.406 10.295a246.438 246.438 0 0 1 28.306 11.662c7.846 3.883 15.132 8.133 23.081 11.943 28.395 13.604 68.051 15.354 103.511 16.677 38.493 1.471 77.162.221 115.552-1.912 27.968-1.559 55.421-4.632 82.83-8.25 7.875-1.03 15.706-2.295 23.552-3.368a147.73 147.73 0 0 0 23.552-4.662 19.905 19.905 0 0 0 7.58-3.795c2.105-1.956 2.768-4.515-1.001-5.25-7.889-1.574-16.015.22-23.728 1.618a459.723 459.723 0 0 0-25.731 5.485 100.858 100.858 0 0 1-11.776 2.398c-3.99.559-8.052.299-11.938-.765-1.266-.397-2.649-1.103-2.723-2.221-.073-1.118.986-1.824 2.076-2.25 15.883-6.295 32.752-10.295 49.739-13.972 11.525-2.5 23.257-4.03 34.871-5.986 10.584-1.779 21.742-2.191 30.912-8.897a10.58 10.58 0 0 0 4.063-4.898 5.88 5.88 0 0 0 .28-3.25ZM269.136 532.21c-4.313-12.251-19.681-33.944-22.919-21.134-1.737 7.192 22.919 21.134 22.919 21.134ZM655.064 556.329c8.214-7.485 18.459-11.941 19.784-5.353 1.237 6.235-19.784 5.353-19.784 5.353ZM318.08 496.795c-5.623-2.942-10.009-7.662-6.712-9.633 3.297-1.97 6.712 9.633 6.712 9.633Z" opacity=".3"/>
    </g>
  </g>
  <defs>
    <clipPath id="a">
      <path fill="#fff" d="M0 0h768v680H0z"/>
    </clipPath>
    <clipPath id="b">
      <path fill="#fff" d="M112 116h736v548H112z"/>
    </clipPath>
  </defs>
</svg>
