<svg xmlns="http://www.w3.org/2000/svg" width="768" height="1280" fill="none">
  <g clip-path="url(#a)">
    <path fill="#C6D7FF" d="M47.2 664.836h-1.576a19.077 19.077 0 0 1-13.124-6.563 18.836 18.836 0 0 1-4.43-13.848 19 19 0 0 1 23.588-16.846 18.994 18.994 0 0 1 14.08 15.276A19.002 19.002 0 0 1 47.035 665l.164-.164Zm0-35.572a16.408 16.408 0 1 0 4.025 32.334 16.406 16.406 0 0 0 12.456-16.317 16.412 16.412 0 0 0-3.85-10.176 16.413 16.413 0 0 0-11.254-5.775l-1.378-.066Z" opacity=".7"/>
    <path fill="#C6D7FF" d="M27.954 464.149a13.999 13.999 0 0 1-17.8 12.312 13.997 13.997 0 0 1-8.608-19.857 14.002 14.002 0 0 1 13.595-7.557 14.011 14.011 0 0 1 12.813 15.102Z"/>
    <path fill="#ECF2FF" d="M31.97 154.739a9.001 9.001 0 1 1-8.236-9.709 9.01 9.01 0 0 1 8.236 9.709Z"/>
    <path fill="#9EBBFF" d="M47.157 308.87h-1.243a15.048 15.048 0 0 1-10.361-5.181 14.872 14.872 0 0 1-3.497-10.933 15.001 15.001 0 0 1 18.621-13.299 15.004 15.004 0 0 1 11.116 12.06 15.003 15.003 0 0 1-6.57 15.028A14.994 14.994 0 0 1 47.029 309l.13-.13Zm0-28.082a12.95 12.95 0 0 0-11.53 18.725 12.952 12.952 0 1 0 21.503-14.114 12.962 12.962 0 0 0-8.885-4.56l-1.088-.051Z" opacity=".7"/>
    <path fill="#ECF2FF" d="M397.954 141.149a14.003 14.003 0 0 1-9.673 12.181 14.003 14.003 0 0 1-18.189-11.73 13.995 13.995 0 0 1 7.106-13.836 13.998 13.998 0 0 1 7.943-1.717 14.01 14.01 0 0 1 12.813 15.102Z"/>
    <path fill="#C6D7FF" d="M608.262 49.784h-2.072a25.081 25.081 0 0 1-17.269-8.636 24.793 24.793 0 0 1-5.828-18.22 24.995 24.995 0 0 1 16.79-21.572 24.992 24.992 0 0 1 26.499 6.7 24.996 24.996 0 0 1 4.525 26.959A24.996 24.996 0 0 1 608.046 50l.216-.216Zm0-46.805a21.583 21.583 0 0 0-20.986 17.003 21.591 21.591 0 0 0 12.035 24.182 21.582 21.582 0 0 0 26.215-6.495 21.588 21.588 0 0 0-.643-27.004 21.578 21.578 0 0 0-14.808-7.6l-1.813-.086Z" opacity=".7"/>
    <path fill="#9EBBFF" d="M198.199 727.836h-1.575a19.073 19.073 0 0 1-13.124-6.563 18.827 18.827 0 0 1-3.604-6.48 18.823 18.823 0 0 1-.825-7.368 18.992 18.992 0 0 1 12.76-16.394 18.992 18.992 0 0 1 20.139 5.091A18.999 18.999 0 0 1 198.035 728l.164-.164Zm0-35.572a16.41 16.41 0 0 0-15.949 12.922 16.408 16.408 0 0 0 19.975 19.412 16.41 16.41 0 0 0 8.606-26.493 16.417 16.417 0 0 0-11.254-5.775l-1.378-.066Z" opacity=".7"/>
    <path fill="#C6D7FF" d="M632.954 260.149a14.003 14.003 0 0 1-9.673 12.181 14.003 14.003 0 0 1-18.189-11.73 13.995 13.995 0 0 1 7.106-13.836 13.998 13.998 0 0 1 7.943-1.717 14.01 14.01 0 0 1 12.813 15.102Z"/>
    <path fill="#9EBBFF" d="M782.231 184.81h-1.824a22.068 22.068 0 0 1-15.196-7.599 21.8 21.8 0 0 1-5.129-16.035 21.999 21.999 0 0 1 27.312-19.505 22.004 22.004 0 0 1 14.764 30.142A22.004 22.004 0 0 1 782.041 185l.19-.19Zm0-41.188a18.991 18.991 0 0 0-18.468 14.962 19 19 0 0 0 10.59 21.28 18.99 18.99 0 0 0 23.07-5.715 19 19 0 0 0-.566-23.764 18.984 18.984 0 0 0-13.031-6.687l-1.595-.076Z" opacity=".7"/>
    <path fill="#C6D7FF" d="M502.954 666.149a14.003 14.003 0 0 1-9.673 12.181 14.003 14.003 0 0 1-18.189-11.73 13.995 13.995 0 0 1 7.106-13.836 13.998 13.998 0 0 1 7.943-1.717 14.01 14.01 0 0 1 12.813 15.102Z"/>
    <path fill="#C6D7FF" d="M29.2 1259.84h-1.576a19.32 19.32 0 0 1-7.218-1.97 19.084 19.084 0 0 1-5.906-4.6 18.818 18.818 0 0 1-3.604-6.48c-.76-2.37-1.041-4.88-.825-7.37a19 19 0 0 1 32.9-11.3c2.5 2.71 4.156 6.1 4.767 9.73.61 3.64.149 7.38-1.329 10.76a18.989 18.989 0 0 1-6.993 8.28 19.047 19.047 0 0 1-10.38 3.11l.163-.16Zm0-35.58a16.41 16.41 0 0 0-14.606 23.72 16.38 16.38 0 0 0 7.802 7.58 16.366 16.366 0 0 0 10.83 1.04c3.621-.9 6.83-3.01 9.094-5.97a16.426 16.426 0 0 0 3.361-10.35 16.384 16.384 0 0 0-8.898-14.19 16.432 16.432 0 0 0-6.206-1.76l-1.378-.07Z" opacity=".7"/>
    <path fill="#C6D7FF" d="M9.954 1059.15a14.011 14.011 0 0 1-2.99 7.56 14.075 14.075 0 0 1-6.683 4.62c-2.636.85-5.464.89-8.127.13a13.998 13.998 0 0 1-6.83-4.4 14.007 14.007 0 0 1 3.874-21.3 14.003 14.003 0 0 1 17.474 3.19 14.009 14.009 0 0 1 3.282 10.2Z"/>
    <path fill="#ECF2FF" d="M13.97 749.739a9.001 9.001 0 1 1-8.236-9.709 9.01 9.01 0 0 1 8.236 9.709Z"/>
    <path fill="#9EBBFF" d="M29.157 903.87h-1.243a15.048 15.048 0 0 1-10.361-5.181 14.872 14.872 0 0 1-3.497-10.933 15.001 15.001 0 0 1 18.621-13.299 15.004 15.004 0 0 1 11.116 12.06 15.003 15.003 0 0 1-6.57 15.028A14.994 14.994 0 0 1 29.029 904l.13-.13Zm0-28.082a12.95 12.95 0 0 0-11.53 18.725 12.952 12.952 0 1 0 21.503-14.114 12.962 12.962 0 0 0-8.885-4.56l-1.088-.051Z" opacity=".7"/>
    <path fill="#ECF2FF" d="M379.954 736.149a14.003 14.003 0 0 1-9.673 12.181 14.003 14.003 0 0 1-18.189-11.73 13.995 13.995 0 0 1 7.106-13.836 13.998 13.998 0 0 1 7.943-1.717 14.01 14.01 0 0 1 12.813 15.102Z"/>
    <path fill="#C6D7FF" d="M590.262 644.784h-2.072a25.084 25.084 0 0 1-17.269-8.636 24.789 24.789 0 0 1-5.828-18.221 24.998 24.998 0 0 1 43.289-14.872 25.002 25.002 0 0 1-4.676 37.854 24.994 24.994 0 0 1-13.66 4.091l.216-.216Zm0-46.805a21.589 21.589 0 1 0 5.298 42.544 21.589 21.589 0 0 0 11.323-34.858 21.583 21.583 0 0 0-14.808-7.6l-1.813-.086Z" opacity=".7"/>
    <path fill="#C6D7FF" d="M614.954 855.149a14.003 14.003 0 0 1-9.673 12.181 14.003 14.003 0 0 1-18.189-11.73 13.995 13.995 0 0 1 7.106-13.836 13.998 13.998 0 0 1 7.943-1.717 14.01 14.01 0 0 1 12.813 15.102Z"/>
    <path fill="#9EBBFF" d="M764.231 779.81h-1.824a22.068 22.068 0 0 1-15.196-7.599 21.8 21.8 0 0 1-5.129-16.035 21.999 21.999 0 0 1 27.312-19.505 22.004 22.004 0 0 1 14.764 30.142A22.004 22.004 0 0 1 764.041 780l.19-.19Zm0-41.188a18.991 18.991 0 0 0-18.468 14.962 19 19 0 0 0 10.59 21.28 18.99 18.99 0 0 0 23.07-5.715 19 19 0 0 0-.566-23.764 18.984 18.984 0 0 0-13.031-6.687l-1.595-.076Z" opacity=".7"/>
    <path fill="#C6D7FF" d="M484.954 1261.15a14.016 14.016 0 0 1-2.989 7.56 14.077 14.077 0 0 1-6.684 4.62c-2.636.85-5.464.89-8.127.13a13.997 13.997 0 0 1-6.83-4.4 14.019 14.019 0 0 1-1.778-15.46 14.045 14.045 0 0 1 5.652-5.84 14.001 14.001 0 0 1 17.474 3.19 14.006 14.006 0 0 1 3.282 10.2Z"/>
  </g>
  <defs>
    <clipPath id="a">
      <path fill="#fff" d="M0 0h768v1280H0z"/>
    </clipPath>
  </defs>
</svg>
